<svg width="500" height="500" viewBox="0 0 500 500" fill="none" xmlns="http://www.w3.org/2000/svg">
<rect width="500" height="500" rx="50" fill="url(#paint0_linear_0_1)"/>
<path d="M158.676 232.75C145.176 232.75 132.676 230.583 121.176 226.25C109.676 221.75 99.6758 215.5 91.1758 207.5C82.8424 199.333 76.3424 189.75 71.6758 178.75C67.0091 167.75 64.6758 155.667 64.6758 142.5C64.6758 129.333 67.0091 117.25 71.6758 106.25C76.3424 95.25 82.9258 85.75 91.4258 77.75C99.9258 69.5833 109.926 63.3333 121.426 59C132.926 54.5 145.426 52.25 158.926 52.25C173.592 52.25 186.926 54.8333 198.926 60C211.092 65 221.259 72.4167 229.426 82.25L206.176 104.25C200.009 97.4167 193.092 92.3333 185.426 89C177.759 85.5 169.509 83.75 160.676 83.75C152.009 83.75 144.092 85.1667 136.926 88C129.759 90.8333 123.509 94.9167 118.176 100.25C112.842 105.417 108.676 111.583 105.676 118.75C102.842 125.917 101.426 133.833 101.426 142.5C101.426 151.167 102.842 159.083 105.676 166.25C108.676 173.417 112.842 179.667 118.176 185C123.509 190.167 129.759 194.167 136.926 197C144.092 199.833 152.009 201.25 160.676 201.25C169.509 201.25 177.759 199.583 185.426 196.25C193.092 192.75 200.009 187.5 206.176 180.5L229.426 202.5C221.259 212.333 211.092 219.833 198.926 225C186.926 230.167 173.509 232.75 158.676 232.75ZM338.631 232.75C324.964 232.75 312.298 230.5 300.631 226C289.131 221.5 279.048 215.167 270.381 207C261.881 198.833 255.298 189.333 250.631 178.5C245.964 167.5 243.631 155.5 243.631 142.5C243.631 129.5 245.964 117.583 250.631 106.75C255.298 95.75 261.881 86.1667 270.381 78C279.048 69.8333 289.131 63.5 300.631 59C312.298 54.5 324.964 52.25 338.631 52.25C352.298 52.25 364.881 54.5 376.381 59C387.881 63.5 397.881 69.8333 406.381 78C415.048 86 421.714 95.5 426.381 106.5C431.048 117.5 433.381 129.5 433.381 142.5C433.381 155.5 431.048 167.5 426.381 178.5C421.714 189.5 415.048 199.083 406.381 207.25C397.881 215.25 387.881 221.5 376.381 226C364.881 230.5 352.298 232.75 338.631 232.75ZM338.631 201.25C346.964 201.25 354.631 199.833 361.631 197C368.631 194.167 374.714 190.167 379.881 185C385.214 179.667 389.298 173.417 392.131 166.25C395.131 159.083 396.631 151.167 396.631 142.5C396.631 133.833 395.131 125.917 392.131 118.75C389.298 111.583 385.214 105.417 379.881 100.25C374.714 94.9167 368.631 90.8333 361.631 88C354.631 85.1667 346.964 83.75 338.631 83.75C330.298 83.75 322.548 85.1667 315.381 88C308.381 90.8333 302.214 94.9167 296.881 100.25C291.714 105.583 287.631 111.833 284.631 119C281.798 126 280.381 133.833 280.381 142.5C280.381 151 281.798 158.833 284.631 166C287.631 173.167 291.714 179.417 296.881 184.75C302.214 190.083 308.381 194.167 315.381 197C322.548 199.833 330.298 201.25 338.631 201.25ZM152.84 452.75C139.007 452.75 125.757 450.833 113.09 447C100.423 443.167 90.2565 438.25 82.5898 432.25L95.3398 404.25C102.507 409.75 111.257 414.25 121.59 417.75C131.923 421.25 142.423 423 153.09 423C161.59 423 168.507 422.083 173.84 420.25C179.173 418.417 183.007 416 185.34 413C187.84 409.833 189.09 406.25 189.09 402.25C189.09 397.25 187.173 393.25 183.34 390.25C179.673 387.25 174.84 384.833 168.84 383C162.84 381.167 156.173 379.417 148.84 377.75C141.507 376.083 134.173 374.167 126.84 372C119.507 369.667 112.757 366.667 106.59 363C100.59 359.333 95.6732 354.5 91.8398 348.5C88.1732 342.5 86.3398 334.833 86.3398 325.5C86.3398 315.833 88.9232 307 94.0898 299C99.4232 290.833 107.423 284.333 118.09 279.5C128.757 274.667 142.257 272.25 158.59 272.25C169.257 272.25 179.84 273.583 190.34 276.25C200.84 278.917 210.09 282.75 218.09 287.75L206.59 315.75C198.59 311.083 190.423 307.667 182.09 305.5C173.923 303.167 165.923 302 158.09 302C149.757 302 142.923 303 137.59 305C132.257 307 128.423 309.667 126.09 313C123.757 316.167 122.59 319.75 122.59 323.75C122.59 328.75 124.423 332.75 128.09 335.75C131.923 338.75 136.84 341.167 142.84 343C148.84 344.667 155.507 346.333 162.84 348C170.173 349.667 177.507 351.667 184.84 354C192.173 356.167 198.84 359.083 204.84 362.75C211.007 366.25 215.923 371 219.59 377C223.423 382.833 225.34 390.333 225.34 399.5C225.34 409.167 222.673 418 217.34 426C212.173 434 204.173 440.5 193.34 445.5C182.673 450.333 169.173 452.75 152.84 452.75ZM345.043 452.75C331.543 452.75 319.043 450.583 307.543 446.25C296.043 441.75 286.043 435.5 277.543 427.5C269.21 419.333 262.71 409.75 258.043 398.75C253.376 387.75 251.043 375.667 251.043 362.5C251.043 349.333 253.376 337.25 258.043 326.25C262.71 315.25 269.293 305.75 277.793 297.75C286.293 289.583 296.293 283.333 307.793 279C319.293 274.5 331.793 272.25 345.293 272.25C359.96 272.25 373.293 274.833 385.293 280C397.46 285 407.626 292.417 415.793 302.25L392.543 324.25C386.376 317.417 379.46 312.333 371.793 309C364.126 305.5 355.876 303.75 347.043 303.75C338.376 303.75 330.46 305.167 323.293 308C316.126 310.833 309.876 314.917 304.543 320.25C299.21 325.417 295.043 331.583 292.043 338.75C289.21 345.917 287.793 353.833 287.793 362.5C287.793 371.167 289.21 379.083 292.043 386.25C295.043 393.417 299.21 399.667 304.543 405C309.876 410.167 316.126 414.167 323.293 417C330.46 419.833 338.376 421.25 347.043 421.25C355.876 421.25 364.126 419.583 371.793 416.25C379.46 412.75 386.376 407.5 392.543 400.5L415.793 422.5C407.626 432.333 397.46 439.833 385.293 445C373.293 450.167 359.876 452.75 345.043 452.75Z" fill="white"/>
<defs>
<linearGradient id="paint0_linear_0_1" x1="0" y1="0" x2="500" y2="500" gradientUnits="userSpaceOnUse">
<stop offset="0.159" stop-color="#594D9F"/>
<stop offset="0.301" stop-color="#714C9C"/>
<stop offset="0.622" stop-color="#C22C89"/>
<stop offset="0.841" stop-color="#D72087"/>
</linearGradient>
</defs>
</svg>
