<?xml version="1.0" encoding="utf-8"?>
<svg viewBox="17.027 103.047 480.854 173.817" xmlns="http://www.w3.org/2000/svg" xmlns:bx="https://boxy-svg.com">
  <defs>
    <linearGradient id="paint0_linear_3_43" x1="26.5" y1="26.5" x2="167" y2="167" gradientUnits="userSpaceOnUse" gradientTransform="matrix(0.80487, 0, 0, 0.826194, 17.026486, 103.046802)">
      <stop stop-color="#FFC700"/>
      <stop offset="0.5052" stop-color="#32DAFF"/>
      <stop offset="1" stop-color="#5759FF"/>
    </linearGradient>
    <style bx:fonts="JetBrains Mono">@import url(https://fonts.googleapis.com/css2?family=JetBrains+Mono%3Aital%2Cwght%400%2C100%3B0%2C200%3B0%2C300%3B0%2C400%3B0%2C500%3B0%2C600%3B0%2C700%3B0%2C800%3B1%2C100%3B1%2C200%3B1%2C300%3B1%2C400%3B1%2C500%3B1%2C600%3B1%2C700%3B1%2C800&amp;display=swap);</style>
  </defs>
  <path fill-rule="evenodd" clip-rule="evenodd" d="M 56.07 252.58 C 93.405 274.707 141.145 261.576 162.7 223.252 C 184.256 184.927 171.465 135.922 134.129 113.795 C 96.794 91.669 49.053 104.8 27.498 143.124 C 5.942 181.448 18.734 230.454 56.07 252.58 Z M 39.952 196.241 C 37.244 210.762 37.914 224.253 41.916 234.817 C 26.937 218.572 19.879 196.268 22.412 174.313 C 24.257 177.728 26.633 181.248 29.456 184.802 C 32.444 188.563 35.965 192.403 39.952 196.241 Z M 33.237 181.637 C 28.613 175.816 25.468 170.358 23.933 165.601 C 25.541 158.758 28.12 152.034 31.723 145.628 C 36.855 136.505 43.569 128.904 51.305 122.981 C 53.148 126.39 55.52 129.904 58.338 133.451 C 60.064 135.624 61.968 137.823 64.037 140.032 C 64.397 139.214 64.9 138.46 65.531 137.813 C 66.088 137.241 66.726 136.771 67.416 136.415 C 65.49 134.351 63.721 132.303 62.119 130.287 C 59.296 126.732 57.024 123.314 55.334 120.107 C 71.952 109.088 92.5 105.301 112.066 110.095 C 98.397 112.254 83.468 121.357 70.468 135.617 C 70.547 135.614 70.626 135.613 70.706 135.613 L 77.294 135.613 C 83.291 129.597 89.599 124.751 95.876 121.235 C 108.712 114.046 120.716 112.738 129.872 117.158 L 124.157 127.32 C 124.334 127.47 124.504 127.629 124.668 127.797 C 125.932 129.095 126.687 130.82 126.797 132.642 L 134.058 119.732 C 141.978 125.779 146.635 136.904 146.979 151.522 C 147.203 161.005 145.575 171.649 142.023 182.616 C 137.153 181.105 132.053 179.215 126.811 176.956 L 126.811 182.375 C 137.065 186.651 146.82 189.567 155.442 190.999 C 159.844 191.731 163.994 192.083 167.792 192.016 C 166.662 201.855 163.608 211.624 158.476 220.747 C 154.872 227.154 150.489 232.809 145.52 237.66 C 140.739 238.672 134.562 238.606 127.339 237.407 C 123.729 236.807 119.89 235.93 115.876 234.782 C 117.178 233.491 118.463 232.151 119.731 230.76 C 119.689 230.762 119.648 230.763 119.606 230.763 C 119.568 230.764 119.53 230.764 119.493 230.764 L 112.904 230.764 C 112.102 231.568 111.296 232.35 110.484 233.112 C 103.278 230.715 95.618 227.516 87.781 223.556 L 87.781 229.121 C 94.064 232.2 100.243 234.807 106.183 236.914 C 102.276 240.161 98.293 242.917 94.324 245.141 C 81.819 252.144 70.104 253.565 61.042 249.549 L 66.674 239.537 C 66.265 239.261 65.882 238.94 65.531 238.58 C 64.566 237.589 63.898 236.35 63.587 235.009 L 56.778 247.115 C 48.472 241.185 43.573 229.859 43.22 214.854 C 43.111 210.213 43.444 205.296 44.23 200.198 C 47.164 202.81 50.305 205.407 53.63 207.965 L 53.63 203.221 C 53.63 202.723 53.677 202.237 53.767 201.767 C 50.754 199.351 47.922 196.912 45.287 194.474 C 46.274 189.882 47.613 185.179 49.31 180.432 C 48.075 180.095 46.936 179.428 46.016 178.484 C 45.707 178.167 45.429 177.825 45.183 177.462 C 43.561 181.848 42.228 186.215 41.183 190.515 C 38.208 187.52 35.548 184.546 33.237 181.637 Z M 78.133 256.281 C 99.327 261.474 121.674 256.597 138.93 243.367 C 135.127 243.435 130.969 243.083 126.559 242.35 C 121.892 241.575 116.892 240.365 111.661 238.739 C 100.764 248.407 89.047 254.557 78.133 256.281 Z M 156.221 186.055 C 160.631 186.788 164.651 187.098 168.201 186.998 C 169.189 166.716 162.11 146.555 148.283 131.559 C 153.535 145.42 153.048 164.321 146.724 183.975 C 150.029 184.86 153.205 185.554 156.221 186.055 Z" fill="url(#paint0_linear_3_43)" style=""/>
  <path d="M 60.59 162.838 L 50.832 162.838 L 50.831 163.424 L 50.831 172.854 L 60.59 172.854 L 60.59 162.838 L 70.347 162.838 L 70.347 202.902 L 60.59 202.902 L 60.589 212.918 L 70.347 212.918 L 70.347 232.949 L 80.104 232.949 L 80.104 202.902 L 89.862 202.902 L 89.862 192.886 L 109.377 192.886 L 109.377 222.933 L 119.134 222.933 L 119.134 212.918 L 128.891 212.918 L 128.892 202.902 L 138.649 202.902 L 138.649 192.886 L 128.892 192.886 L 128.892 202.902 L 119.134 202.902 L 119.134 132.79 L 109.377 132.79 L 109.377 142.806 L 99.62 142.806 L 99.62 152.822 L 89.862 152.822 L 89.862 162.838 L 99.619 162.838 L 99.62 152.822 L 109.275 152.822 L 109.376 152.822 L 109.376 162.658 L 109.377 162.838 L 109.377 182.87 L 89.862 182.87 L 89.862 192.886 L 80.104 192.886 L 80.104 142.806 L 70.347 142.806 L 70.347 152.822 L 60.59 152.822 L 60.59 162.838 Z" style="fill: rgb(255, 255, 255);"/>
  <path d="M 188.403 103.047 L 200.037 103.047 L 200.037 120.854 L 232.717 120.854 L 232.717 103.047 L 244.351 103.047 L 244.351 151.359 L 232.717 151.359 L 232.717 132.448 L 200.037 132.448 L 200.037 151.359 L 188.403 151.359 L 188.403 103.047 Z" style="fill: rgb(255, 255, 255);"/>
  <path d="M 259.994 111.674 C 260.711 109.19 261.899 107.142 263.558 105.532 C 265.262 103.875 267.593 103.047 270.551 103.047 L 284.605 103.047 C 287.609 103.047 290.008 103.875 291.801 105.532 C 293.593 107.142 294.849 109.19 295.566 111.674 L 307.132 151.359 L 294.221 151.359 L 291.06 139.764 L 269.744 139.764 L 272.434 128.169 L 287.9 128.169 L 284.269 114.642 L 271.224 114.642 L 261.271 151.359 L 248.361 151.359 L 259.994 111.674 Z" style="fill: rgb(255, 255, 255);"/>
  <path d="M 310.464 111.674 C 310.464 110.432 310.689 109.282 311.137 108.223 C 311.585 107.165 312.168 106.268 312.885 105.532 C 313.647 104.749 314.522 104.151 315.508 103.737 C 316.539 103.277 317.592 103.047 318.668 103.047 L 362.848 103.047 L 362.848 114.642 L 322.098 114.642 L 322.098 139.764 L 362.848 139.764 L 362.848 151.359 L 319.139 151.359 C 317.929 151.359 316.786 151.129 315.71 150.669 C 314.633 150.209 313.714 149.611 312.952 148.875 C 312.191 148.092 311.585 147.195 311.137 146.183 C 310.689 145.125 310.464 144.043 310.464 142.939 L 310.464 111.674 Z" style="fill: rgb(255, 255, 255);"/>
  <path d="M 368.924 103.047 L 380.558 103.047 L 380.558 121.958 L 391.048 121.958 L 405.304 103.047 L 418.752 103.047 L 401.202 126.513 L 422.047 151.359 L 407.186 151.359 L 391.653 133.553 L 380.558 133.553 L 380.558 151.359 L 368.924 151.359 L 368.924 103.047 Z" style="fill: rgb(255, 255, 255);"/>
  <path d="M 208.644 170.359 L 186.05 170.359 L 186.05 158.764 L 242.737 158.764 L 242.737 170.359 L 220.277 170.359 L 220.277 207.076 L 208.644 207.076 L 208.644 170.359 Z" style="fill: rgb(255, 255, 255);"/>
  <path fill-rule="evenodd" clip-rule="evenodd" d="M 247.095 167.391 C 247.095 166.148 247.319 164.998 247.767 163.94 C 248.216 162.882 248.798 161.984 249.515 161.248 C 250.278 160.466 251.152 159.868 252.138 159.454 C 253.169 158.994 254.222 158.764 255.298 158.764 L 295.174 158.764 C 296.385 158.764 297.528 158.994 298.604 159.454 C 299.68 159.914 300.599 160.535 301.36 161.317 C 302.123 162.053 302.728 162.951 303.176 164.009 C 303.624 165.021 303.849 166.079 303.849 167.184 L 303.849 198.448 C 303.849 199.691 303.624 200.841 303.176 201.899 C 302.728 202.958 302.123 203.878 301.36 204.661 C 300.643 205.397 299.769 205.995 298.738 206.455 C 297.752 206.869 296.721 207.076 295.645 207.076 L 255.769 207.076 C 254.559 207.076 253.416 206.846 252.34 206.386 C 251.264 205.925 250.345 205.327 249.583 204.591 C 248.821 203.809 248.216 202.912 247.767 201.899 C 247.319 200.841 247.095 199.76 247.095 198.656 L 247.095 167.391 Z M 292.215 195.481 L 292.215 170.359 L 258.728 170.359 L 258.728 195.481 L 292.215 195.481 Z" style="fill: rgb(255, 255, 255);"/>
  <path fill-rule="evenodd" clip-rule="evenodd" d="M 309.889 167.391 C 309.889 166.148 310.113 164.998 310.562 163.94 C 311.01 162.882 311.593 161.984 312.31 161.248 C 313.072 160.466 313.946 159.868 314.932 159.454 C 315.964 158.994 317.017 158.764 318.093 158.764 L 350.303 158.764 C 351.513 158.764 352.634 158.994 353.665 159.454 C 354.696 159.914 355.57 160.535 356.287 161.317 C 357.049 162.053 357.632 162.951 358.036 164.009 C 358.484 165.021 358.708 166.079 358.708 167.184 L 358.708 177.26 C 359.919 177.26 360.995 177.49 361.936 177.95 C 362.922 178.411 363.751 179.032 364.424 179.814 C 365.096 180.55 365.59 181.447 365.904 182.506 C 366.262 183.518 366.441 184.576 366.441 185.68 L 366.441 198.448 C 366.441 199.691 366.217 200.841 365.769 201.899 C 365.321 202.958 364.716 203.878 363.953 204.661 C 363.236 205.397 362.362 205.995 361.33 206.455 C 360.344 206.869 359.313 207.076 358.237 207.076 L 309.889 207.076 L 309.889 167.391 Z M 354.808 195.481 L 354.808 188.096 L 321.522 188.096 L 321.522 195.481 L 354.808 195.481 Z M 347.075 177.26 L 347.075 170.359 L 321.522 170.359 L 321.522 177.26 L 347.075 177.26 Z" style="fill: rgb(255, 255, 255);"/>
  <path d="M 371.799 167.391 C 371.799 166.148 372.022 164.998 372.471 163.94 C 372.919 162.882 373.502 161.984 374.219 161.248 C 374.981 160.466 375.855 159.868 376.842 159.454 C 377.873 158.994 378.926 158.764 380.002 158.764 L 422.366 158.764 L 422.366 170.359 L 383.431 170.359 L 383.431 176.57 L 417.053 176.57 L 417.053 188.165 L 383.431 188.165 L 383.431 195.481 L 422.366 195.481 L 422.366 207.076 L 380.473 207.076 C 379.262 207.076 378.119 206.846 377.043 206.386 C 375.968 205.925 375.049 205.327 374.286 204.591 C 373.524 203.809 372.919 202.912 372.471 201.899 C 372.022 200.841 371.799 199.76 371.799 198.656 L 371.799 167.391 Z" style="fill: rgb(255, 255, 255);"/>
  <path d="M 188.403 223.643 C 188.403 222.401 188.628 221.251 189.076 220.192 C 189.524 219.135 190.107 218.237 190.824 217.501 C 191.586 216.719 192.461 216.121 193.447 215.707 C 194.478 215.247 195.531 215.016 196.607 215.016 L 235.676 215.016 L 235.676 226.611 L 200.037 226.611 L 200.037 237.723 L 230.297 237.723 L 230.297 249.318 L 200.037 249.318 L 200.037 263.329 L 188.403 263.329 L 188.403 223.643 Z" style="fill: rgb(255, 255, 255);"/>
  <path d="M 240.003 223.643 C 240.003 222.401 240.226 221.251 240.675 220.192 C 241.123 219.135 241.706 218.237 242.424 217.501 C 243.185 216.719 244.06 216.121 245.046 215.707 C 246.077 215.247 247.131 215.016 248.207 215.016 L 290.57 215.016 L 290.57 226.611 L 251.635 226.611 L 251.635 232.823 L 285.258 232.823 L 285.258 244.418 L 251.635 244.418 L 251.635 251.734 L 290.57 251.734 L 290.57 263.329 L 248.677 263.329 C 247.467 263.329 246.323 263.098 245.248 262.639 C 244.172 262.179 243.253 261.58 242.49 260.844 C 241.728 260.062 241.123 259.165 240.675 258.152 C 240.226 257.094 240.003 256.013 240.003 254.908 L 240.003 223.643 Z" style="fill: rgb(255, 255, 255);"/>
  <path d="M 296.624 251.734 L 341.61 251.734 L 341.61 244.418 L 305.03 244.418 C 303.819 244.418 302.699 244.188 301.668 243.728 C 300.637 243.268 299.74 242.67 298.978 241.933 C 298.261 241.151 297.677 240.254 297.23 239.242 C 296.826 238.183 296.624 237.102 296.624 235.997 L 296.624 223.643 C 296.624 222.401 296.848 221.251 297.297 220.192 C 297.745 219.135 298.328 218.237 299.045 217.501 C 299.807 216.719 300.681 216.121 301.668 215.707 C 302.699 215.247 303.752 215.016 304.828 215.016 L 347.999 215.016 L 347.999 226.611 L 308.257 226.611 L 308.257 232.823 L 344.838 232.823 C 346.048 232.823 347.17 233.053 348.201 233.513 C 349.232 233.973 350.106 234.594 350.823 235.377 C 351.585 236.113 352.168 237.01 352.571 238.069 C 353.019 239.081 353.244 240.139 353.244 241.243 L 353.244 254.701 C 353.244 255.944 353.019 257.094 352.571 258.152 C 352.123 259.211 351.517 260.13 350.756 260.913 C 350.038 261.649 349.164 262.247 348.133 262.707 C 347.147 263.121 346.116 263.329 345.04 263.329 L 296.624 263.329 L 296.624 251.734 Z" style="fill: rgb(255, 255, 255);"/>
  <path d="M 375.834 226.611 L 353.241 226.611 L 353.241 215.016 L 409.927 215.016 L 409.927 226.611 L 387.468 226.611 L 387.468 263.329 L 375.834 263.329 L 375.834 226.611 Z" style="fill: rgb(255, 255, 255);"/>
  <path fill-rule="evenodd" clip-rule="evenodd" d="M 429.141 168.403 C 429.141 166.981 429.398 165.665 429.91 164.454 C 430.424 163.242 431.091 162.215 431.911 161.373 C 432.784 160.478 433.784 159.793 434.913 159.319 C 436.093 158.792 437.299 158.529 438.53 158.529 L 471.012 158.529 C 472.397 158.529 473.68 158.792 474.86 159.319 C 476.04 159.846 477.041 160.557 477.861 161.452 C 478.734 162.294 479.401 163.321 479.863 164.533 C 480.376 165.691 480.632 166.902 480.632 168.166 L 480.557 178.174 C 480.557 179.438 480.3 180.649 479.787 181.808 C 479.425 182.757 478.937 183.592 478.324 184.315 C 478.36 184.355 478.396 184.396 478.431 184.437 C 479.104 185.174 479.596 186.07 479.91 187.129 C 480.269 188.142 480.449 192.282 480.449 193.386 L 480.449 198.448 C 480.449 199.691 480.224 200.841 479.776 201.899 C 479.328 202.958 478.722 203.878 477.96 204.66 C 477.243 205.396 476.369 205.994 475.338 206.454 C 474.352 206.869 473.321 207.076 472.245 207.076 L 462.067 207.076 L 462.067 197.058 L 468.815 197.022 L 468.815 190.894 L 438.455 190.894 C 437.223 190.894 436.018 190.63 434.838 190.104 C 433.708 189.63 432.708 188.945 431.835 188.05 C 431.015 187.207 430.348 186.18 429.835 184.969 C 429.322 183.758 429.065 182.441 429.065 181.019 L 429.141 168.403 Z M 467.317 170.608 L 467.317 178.508 L 442.456 178.508 L 442.456 170.608 L 467.317 170.608 Z" style="fill: rgb(255, 255, 255);"/>
  <path d="M 441.066 197.058 L 441.066 207.076 L 429.065 207.076 L 429.065 192.435 C 429.065 192.435 431.316 197.058 437.316 197.058 L 441.066 197.058 Z" style="fill: rgb(255, 255, 255);"/>
  <text style="fill: rgb(255, 255, 255); font-family: &quot;JetBrains Mono&quot;; font-size: 45px; font-style: italic; font-weight: 800; white-space: pre;" x="389.886" y="263.127">2022</text>
</svg>