<svg baseProfile="basic" class="banner" xmlns="http://www.w3.org/2000/svg" viewBox="0 0 15360 8640"><style>.st0{fill:#51C8D4;} .st1{fill:#282D33;} .st2{fill:#FCA531;} .st3{fill:#FFFFFF;}</style><g id="group_2"><path id="keyboard_1_" class="st1" d="M11039.5 6125.9h-903c-22 0-39.9 17.9-39.9 39.8v434c0 22 17.9 39.8 39.9 39.8h903c22 0 39.8-17.9 39.8-39.8v-434c0-21.9-17.8-39.8-39.8-39.8zm-6.5 467.3h-890v-421h890.1v421zm-46.8-336.2h-71.6v-46.3h71.6v46.3zm-103.6 0h-71.6v-46.3h71.6v46.3zm-103.5 0h-71.6v-46.3h71.6v46.3zm-103.6 0h-71.6v-46.3h71.6v46.3zm-103.6 0h-71.6v-46.3h71.6v46.3zm-103.6 0h-71.6v-46.3h71.6v46.3zm-103.5 0h-71.6v-46.3h71.6v46.3zm-103.6 0h-71.6v-46.3h71.6v46.3zm725 95.8h-71.6v-46.3h71.6v46.3zm-103.6 0h-71.6v-46.3h71.6v46.3zm-103.5 0h-71.6v-46.3h71.6v46.3zm-103.6 0h-71.6v-46.3h71.6v46.3zm-103.6 0h-71.6v-46.3h71.6v46.3zm-103.6 0h-71.6v-46.3h71.6v46.3zm-103.5 0h-71.6v-46.3h71.6v46.3zm-103.6 0h-71.6v-46.3h71.6v46.3zm725 95.8h-71.6v-46.3h71.6v46.3zm-103.6 0h-71.6v-46.3h71.6v46.3zm-103.5 0h-71.6v-46.3h71.6v46.3zm-103.6 0h-71.6v-46.3h71.6v46.3zm-103.6 0h-71.6v-46.3h71.6v46.3zm-103.6 0h-71.6v-46.3h71.6v46.3zm-103.5 0h-71.6v-46.3h71.6v46.3zm-103.6 0h-71.6v-46.3h71.6v46.3zm725 95.8h-71.6V6498h71.6v46.4zm-103.6 0h-71.6V6498h71.6v46.4zm-103.5 0h-383.2V6498h383.2v46.4zm-414.3 0h-71.6V6498h71.6v46.4zm-103.6 0h-71.6V6498h71.6v46.4z"></path><path id="usb" class="st1" d="M10683.1 5989.7h37.1v37.1h-37.1v-37.1zm74.2 37h37.1v-37.1h-37.1v37.1zm-296.8 0h37.1v-37.1h-37.1v37.1zm445.1 0h37.1v-37.1h-37.1v37.1zm-74.2 0h37.1v-37.1h-37.1v37.1zm-445.1 0h37.1v-37.1h-37.1v37.1zm148.4 0h37.1v-37.1h-37.1v37.1zm74.2 0h37.1v-37.1h-37.1v37.1zm370.9 0h37.1v-37.1h-37.1v37.1zm445 0h37.1v-37.1h-37.1v37.1zm74.2 0h37.1v-37.1h-37.1v37.1zm-148.3 0h37.1v-37.1h-37.1v37.1zm-148.4 0h37.1v-37.1h-37.1v37.1zm74.2 0h37.1v-37.1h-37.1v37.1zm-148.3 0h37.1v-37.1h-37.1v37.1zm-74.2 0h37.1v-37.1h-37.1v37.1zm-741.9 0h37.1v-37.1h-37.1v37.1zm-471.8 199.5l-27.2 25.2c9.7 10.4 20.8 19.4 33 26.5l18.7-32c-9.1-5.3-17.4-11.9-24.5-19.7zm44.8 67.6c12.9 3.3 26.7 5 40.9 5.2l.5-37.1c-11.4-.2-22.2-1.5-32.4-4.1l-9 36zm-73.4-124.1l-36.3 7.6c2.9 13.8 7.5 27.1 13.7 39.4l33.1-16.6c-4.7-9.5-8.2-19.7-10.5-30.4zm89.2-178.1c-14.2 2.1-27.7 5.8-40.2 11l14.4 34.1c9.5-4 20-6.9 31-8.5l-5.2-36.6zm3722.9-209l36.3-7.3c-2.7-13.2-6.5-26.2-11.3-38.6l-34.5 13.5c4.1 10.3 7.3 21.3 9.5 32.4zm-3775.5 270.5l-23.8-28.4c-10.8 9.1-20.3 19.8-28 31.9l31.2 20.1c5.7-9 12.6-16.9 20.6-23.6zm3782.6-352.6c-7.2-11.6-15.5-22.5-24.7-32.3l-27.1 25.3c7.5 8 14.3 16.9 20.2 26.5l31.6-19.5zM10037.4 6299h37v-37h-37v37zm126.2-272.3h37.1v-37.1h-37.1v37.1zm74.2 0h37.1v-37.1h-37.1v37.1zm-260.1-37h-37.2v37.1h37.2v-37.1zm111.6 37h37.2v-37.1h-37.2v37.1zm-126 272.3h37v-37h-37v37zm88.8-309.3h-37.2v37.1h37.2v-37.1zm1521.1 37h37.1v-37.1h-37.1v37.1zm-1758.8 78.9l-35.5-10.7c-4 13.2-6.3 27-6.9 41.1l37 1.5c.5-11 2.3-21.7 5.4-31.9zm3093.9-78.9h37.1v-37.1h-37.1v37.1zm371.1 0h37.1v-37.1h-37.1v37.1zm32.9-384h36.8v-37.1h-36.8v37.1zm41.4 384h37.2v-37.1h-37.2v37.1zm32.4-384h37v-37.1h-37v37.1zm-403.6 384h37.1v-37.1h-37.1v37.1zm148.4 0h37.1v-37.1h-37.1v37.1zm-74.2 0h37.1v-37.1h-37.1v37.1zm148.5 0h37.1v-37.1h-37.1v37.1zm399-113.8l32 18.7c6.8-11.6 12.5-24 16.9-37l-35.1-12c-3.7 10.8-8.3 20.9-13.8 30.3zm-148.3 76.8h-27.8v37.1h27.8c3.3 0 6.7-.1 10-.2l-1.3-37c-2.9 0-5.8.1-8.7.1zm103.8-28.9l20.9 30.6c11.4-7.7 21.8-16.7 31.2-26.8l-27.2-25.2c-7.5 8-15.9 15.2-24.9 21.4zm105-145.6l-37 1.1c.1 1.9.1 3.9.1 5.9 0 9.4-.7 18.8-2 27.9l36.7 5.3c1.6-10.9 2.4-22.1 2.4-33.2-.1-2.4-.1-4.7-.2-7zm-204.2-209.5l-.7 37.1c11.5.2 22.8 1.4 33.5 3.5l7.2-36.3c-12.8-2.6-26.3-4-40-4.3zm37.9 380l7.1 36.4c13.6-2.7 26.6-6.5 38.8-11.4l-13.9-34.4c-9.9 4-20.7 7.2-32 9.4zm41.1-363.9l-14.3 34.2c10.2 4.3 19.9 9.6 29 15.9l21.2-30.4c-11.2-7.8-23.3-14.4-35.9-19.7zm-1818 404.9h37.2v-37.1h-37.2v37.1zm370.8 0h37.1v-37.1h-37.1v37.1zm-148.2 0h36.9v-37.1h-36.9v37.1zm74 0h37.1v-37.1h-37.1v37.1zm148.4 0h37.1v-37.1h-37.1v37.1zm-519.2 0h37.1v-37.1h-37.1v37.1zm593.3 0h37.1v-37.1h-37.1v37.1zm-444.7 0h37.1v-37.1h-37.1v37.1zm74.2 0h37v-37.1h-37v37.1zm593.1 0h37.1v-37.1h-37.1v37.1zm222.5 0h37.1v-37.1h-37.1v37.1zm-74.2 0h37.1v-37.1h-37.1v37.1zm-296.7 0h37.1v-37.1h-37.1v37.1zm445.1 0h37.1v-37.1h-37.1v37.1zm-370.9 0h37.1v-37.1h-37.1v37.1zm148.3 0h37.1v-37.1h-37.1v37.1zm296.8 0h37.1v-37.1h-37.1v37.1z"></path><path id="desktop" class="st1" d="M13312.2 5572.6v-842c0-34.6-28.1-62.7-62.7-62.7h-1362c-34.6 0-62.7 28.1-62.7 62.7v842h-.1v121.6c0 36.6 34.9 72.5 70.4 72.5h490c0 8.2.1 17.1.2 26.2.4 28 .8 59.6-2.7 77.2-2.9 14.8-4.7 18-5.1 18.6-.8.8-4.4 2.8-7.2 4.3l-2.1 1.2c-5.3 2.9-14.2 7.2-25 12h-41.1v46.5h49.4l.2.5c.4-.2.8-.4 1.2-.5h431c.5.2 1.1.5 1.6.7l.3-.7h49.4v-46.5h-41.5c-10.9-4.9-19.8-9.1-25.1-12l-1.2-.7c-2.8-1.5-6.2-3.4-7.2-4.3-.7-1.2-2.3-5.3-5-19.1-3.5-17.6-3.1-48.8-2.7-76.3.1-9.5.2-18.7.2-27.2h499.3c37.9 0 60.5-35.9 60.5-70.5v-123.6h-.3zm-1441-842.1c0-8.9 7.3-16.2 16.2-16.2h1362c9 0 16.2 7.3 16.2 16.2v819.6h-1394.5v-819.6zm834.7 1062.8c-.4 31.2-.8 63.5 3.6 85.9 2.2 11.4 4.3 19.9 7.3 27.1h-296.2c3.3-7.4 5.5-16.2 7.6-27 4.4-22.4 4-55.2 3.6-86.9-.1-9-.2-17.8-.2-25.6h274.6c-.1 7.9-.2 17.1-.3 26.5zm546-73.2H11895c-10 0-23.9-15.1-23.9-26v-97.5h1394.8v99.5c0 11.4-5.8 24-14 24z"></path><path id="cloud_x5F_1" class="st1" d="M5164.8 2476c-41.5-46.2-96.8-77.1-157.2-88.5-2-54.3-13.7-107-34.8-156.9-22.5-53.1-54.7-100.8-95.6-141.8-41-41-88.7-73.2-141.9-95.6-55-23.3-113.5-35.1-173.7-35.1v45.4c221 0 400.9 179.8 400.9 400.8v23.2l20.1 2.3c119 13.6 208.8 114.2 208.8 234.1 0 130-105.8 235.8-235.8 235.8H3810.8l-.5-2.2-19.5 1.7c-3 .3-6.1.5-9.2.5-60.3 0-109.4-49.1-109.4-109.5 0-59.5 46.6-107.5 106.1-109.2l24.8-.7-2.9-24.6c-1.3-11.4-2-21.7-2-31.5 0-132 96.6-241.8 222.9-262.4V2472h45.2v-388.4h-106.4l82.3-91.6 99.5-110.6 181.8 202.1h-83.9v45.2h185.3L4141.5 1814l-283.2 314.8H4021v186.8c-66.8 9.2-128.6 39.7-177.1 88.3-58.8 58.8-91.2 137-91.2 220.2 0 4.6.1 9.2.4 14-31.2 5.8-59.9 21.1-82.5 44.2-28.3 29-43.8 67.3-43.8 107.9 0 82.9 65.4 150.8 147.3 154.7v.2h1181.5c75.1 0 145.7-29.3 198.8-82.4 53.1-53.1 82.4-123.7 82.4-198.9-.1-69.4-25.6-136.1-72-187.8z"></path><path id="cloud_x5F_2" class="st1" d="M3433.5 1915.7c-41.5-46.2-96.8-77.1-157.2-88.5-2-54.3-13.7-107-34.8-156.9-22.5-53.1-54.7-100.8-95.6-141.8-41-41-88.7-73.2-141.9-95.6-55-23.3-113.5-35.1-173.7-35.1v45.4c221 0 400.9 179.8 400.9 400.8v23.2l20.1 2.3c119 13.6 208.8 114.2 208.8 234.1 0 130-105.8 235.8-235.8 235.8H2079.6l-.5-2.2-19.5 1.7c-3 .3-6.1.5-9.2.5-60.3 0-109.4-49.1-109.4-109.5 0-59.5 46.6-107.5 106.1-109.2l24.8-.7-2.9-24.6c-1.3-11.4-2-21.7-2-31.5 0-132 96.7-241.8 222.9-262.5v220.1h45.2V1633h-106.4l82.3-91.6 99.5-110.6 181.8 202.1h-83.9v45.2h185.3l-283.2-314.8-283.2 314.8H2290v77.1c-66.9 9.2-128.6 39.7-177.2 88.3-58.8 58.8-91.2 137-91.2 220.2 0 4.6.1 9.2.4 14-31.2 5.8-59.9 21.1-82.5 44.2-28.3 29-43.8 67.3-43.8 107.9 0 82.9 65.4 150.8 147.3 154.7v.2h1181.5c75.1 0 145.7-29.3 198.8-82.4 53.1-53.1 82.4-123.7 82.4-198.9-.2-69.4-25.8-136.1-72.2-187.7z"></path><g id="search_1_"><path class="st1" d="M7050.4 2084c-62.8-62.8-146.3-97.4-235.2-97.4h-.7c-88.8.2-172.2 34.8-234.8 97.5-31.7 31.7-56.3 68.8-73 110.1-16.1 39.9-24.3 82-24.3 125.3s8.2 85.4 24.3 125.3c16.7 41.3 41.3 78.4 73 110 58.4 58.4 134.9 92.4 216.9 96.9v22.9h-65v82.3h.4V3062h166.2v-305.2h.4v-82.2h-55.7V2651c78.5-6.5 151.4-40.1 207.6-96.3 62.8-62.9 97.4-146.5 97.3-235.4 0-89-34.6-172.6-97.4-235.3zM6852 3015.8h-73.7v-213h73.7v213zm.4-259.2h-74.5v-35.7h74.5v35.7zm165.5-234.5c-53.9 53.9-125.7 83.7-202.1 83.9h-.5c-76.7 0-148.7-29.8-202.8-83.9-54.1-54-83.8-126-83.8-202.6 0-76.7 29.7-148.7 83.8-202.7 53.9-53.9 125.7-83.7 202.2-83.9h.6c76.6 0 148.5 29.8 202.5 83.8 54.1 54 83.9 126 83.9 202.7 0 76.6-29.8 148.5-83.8 202.7z"></path><path class="st3" d="M7055.5 2299.9l-24.8 39-110.7-70.2-179.1 191.6-156.3-57.5 16-43.4 127.5 46.9 184.4-197.2 143 90.8z"></path></g><g id="community_x5F_3"><g id="user_x5F_2_1_"><path class="st3" d="M1656.2 6733.4h-116.9c-40.7 0-75.5 25.3-89.7 61-21.1-30-32.4-65.5-32.4-103 0-99.6 81-180.6 180.6-180.6s180.6 81 180.6 180.6c0 37.5-11.3 73-32.4 103-14.2-35.7-49.1-61-89.8-61z"></path><path class="st1" d="M1307.7 6691.4c0 159.9 130.1 290.1 290 290.1s290-130.1 290-290.1c0-159.9-130.1-290.1-290-290.1s-290 130.2-290 290.1zm290 244.4c-41 0-79.6-10.2-113.6-28.1V6830c0-30.4 24.7-55.1 55.1-55.1h116.9c30.4 0 55.1 24.7 55.1 55.1v77.8c-33.9 17.9-72.5 28-113.5 28zm0-215.3c-30.4 0-55.1-24.7-55.1-55.1 0-30.4 24.7-55.1 55.1-55.1 30.4 0 55.1 24.7 55.1 55.1 0 30.4-24.7 55.1-55.1 55.1zm-244.4-29.1c0-134.8 109.6-244.4 244.4-244.4s244.4 109.6 244.4 244.4c0 74-33.1 140.4-85.2 185.3V6830c0-49.4-35.7-90.6-82.6-99.1 15.1-17.6 24.2-40.5 24.2-65.4 0-55.6-45.2-100.8-100.8-100.8-55.6 0-100.8 45.2-100.8 100.8 0 24.9 9.1 47.8 24.2 65.4-46.9 8.6-82.6 49.7-82.6 99.1v46.7c-52.1-44.9-85.2-111.3-85.2-185.3z"></path></g><path id="path" class="st1" d="M1185.2 6137.9l23 39.3-41.1 24-23-39.3 41.1-24zm-87-54.6l23 39.3 41.1-24-23-39.3-41.1 24zm-91.9-157.4l23 39.3 41.1-24-23-39.3-41.1 24zm45.9 78.7l23 39.3 41.1-24-23-39.3-41.1 24zm137.8 236l23 39.3 41.1-24-23-39.3-41.1 24zm91.9 157.3l23 39.3 41.1-24-23-39.3-41.1 24zm-45.9-78.7l23 39.3 41.1-24-23-39.3-41.1 24zm-275.6-471.9l23 39.3 41.1-24-23-39.3-41.1 24zM730.7 5454l23 39.3 41.1-24-23-39.3-41.1 24zm46 78.7l23 39.3 41.1-24-23-39.3-41.1 24zm-91.9-157.3l23 39.3 41.1-24-23-39.3-41.1 24zm229.6 393.2l23 39.3 41.1-24-23-39.3-41.1 24zm-45.9-78.6l23 39.3 41.1-24-23-39.3-41.1 24zm-45.9-78.7l23 39.3 41.1-24-23-39.3-41.1 24z"></path><path id="user_x5F_1_1_" class="st1" d="M258.5 5051.6c0 67.8 26.4 131.5 74.4 179.5 48 47.9 111.7 74.3 179.5 74.3s131.5-26.4 179.5-74.3 74.4-111.7 74.4-179.5-26.4-131.6-74.4-179.5c-47.9-47.9-111.7-74.4-179.5-74.4s-131.5 26.4-179.5 74.3c-48 48-74.4 111.7-74.4 179.6zm253.9 34.7c-35.1 0-63.7-28.6-63.7-63.7s28.6-63.7 63.7-63.7 63.6 28.6 63.6 63.7c.1 35.1-28.5 63.7-63.6 63.7zm128.7 116.5c-36 30.8-81.3 47.6-128.7 47.6-47.4 0-92.7-16.8-128.8-47.6 1.7-33.6 29.6-60.5 63.6-60.5h130.3c34.1 0 62 26.8 63.6 60.5zm-336.2-151.2c0-114.4 93.1-207.5 207.5-207.5s207.5 93.1 207.5 207.5c0 44.5-14.1 85.7-38 119.6-13-38.8-47.1-68.1-88.6-74 18.1-19.6 29.1-45.8 29.1-74.5 0-60.7-49.3-110-110-110s-110.1 49.4-110.1 110c0 28.7 11.1 54.9 29.1 74.5-41.5 6-75.6 35.2-88.6 74-23.8-33.9-37.9-75.2-37.9-119.6z"></path></g><g id="community_x5F_2"><g id="user_x5F_3"><path class="st3" d="M12974.9 4247.6c0 37.5-11.3 73-32.4 103-14.2-35.7-49.1-61-89.7-61h-116.9c-40.7 0-75.6 25.3-89.8 61-21.1-30-32.4-65.5-32.4-103 0-99.6 81-180.6 180.6-180.6 99.6.1 180.6 81.1 180.6 180.6z"></path><path class="st1" d="M12794.3 3957.6c-159.9 0-290 130.1-290 290.1 0 159.9 130.1 290.1 290 290.1s290-130.1 290-290.1c.1-160-130.1-290.1-290-290.1zm-113.6 506.4v-77.8c0-30.4 24.7-55.1 55.1-55.1h116.9c30.4 0 55.1 24.7 55.1 55.1v77.8c-34 17.9-72.6 28.1-113.6 28.1-40.9 0-79.5-10.2-113.5-28.1zm58.5-242.3c0-30.4 24.7-55.1 55.1-55.1 30.4 0 55.1 24.7 55.1 55.1 0 30.4-24.7 55.1-55.1 55.1-30.4 0-55.1-24.7-55.1-55.1zm214.3 211.2v-46.7c0-49.4-35.7-90.6-82.6-99.1 15.1-17.6 24.2-40.5 24.2-65.4 0-55.6-45.2-100.8-100.8-100.8-55.6 0-100.8 45.2-100.8 100.8 0 24.9 9.1 47.8 24.2 65.4-46.9 8.6-82.6 49.7-82.6 99.1v46.7c-52.1-44.9-85.2-111.3-85.2-185.3 0-134.8 109.6-244.4 244.4-244.4s244.4 109.6 244.4 244.4c0 74-33.1 140.5-85.2 185.3z"></path></g><path id="path_x5F_2" class="st1" d="M13247.9 3718.1l-23 39.3-41.1-24 23-39.3 41.1 24zm4.8-102.6l-23 39.3 41.1 24 23-39.3-41.1-24zm91.9-157.3l-23 39.3 41.1 24 23-39.3-41.1-24zm-45.9 78.6l-23 39.3 41.1 24 23-39.3-41.1-24zm-137.8 236l-23 39.3 41.1 24 23-39.3-41.1-24zm-91.9 157.3l-23 39.3 41.1 24 23-39.3-41.1-24zm45.9-78.7l-23 39.3 41.1 24 23-39.3-41.1-24zm275.6-471.9l-23 39.3 41.1 24 23-39.3-41.1-24zm229.7-393.3l-23 39.3 41.1 24 23-39.3-41.1-24zm-45.9 78.7l-23 39.3 41.1 24 23-39.3-41.1-24zm91.8-157.3l-23 39.3 41.1 24 23-39.3-41.1-24zm-229.6 393.3l-23 39.3 41.1 24 23-39.3-41.1-24zm45.9-78.7l-23 39.3 41.1 24 23-39.3-41.1-24zm45.9-78.7l-23 39.3 41.1 24 23-39.3-41.1-24z"></path><path id="user_x5F_2" class="st1" d="M14059.1 2428.3c-48-47.9-111.7-74.3-179.5-74.3s-131.5 26.4-179.5 74.3-74.4 111.7-74.4 179.5 26.4 131.5 74.4 179.5c47.9 47.9 111.7 74.3 179.5 74.3s131.5-26.4 179.5-74.3 74.4-111.7 74.4-179.5-26.4-131.6-74.4-179.5zm-243.1 150.5c0-35.1 28.5-63.7 63.6-63.7s63.7 28.6 63.7 63.7-28.6 63.7-63.7 63.7-63.6-28.6-63.6-63.7zm-1.5 119.7h130.3c34.1 0 62 26.8 63.6 60.5-36 30.8-81.4 47.6-128.8 47.6-47.4 0-92.7-16.8-128.7-47.6 1.7-33.6 29.6-60.5 63.6-60.5zm234.7 28.8c-13-38.8-47.1-68-88.6-74 18.1-19.6 29.1-45.8 29.1-74.5 0-60.7-49.4-110-110.1-110-60.6 0-110 49.4-110 110 0 28.7 11 54.9 29.1 74.5-41.5 6-75.6 35.2-88.6 74-23.9-33.8-38-75.1-38-119.6 0-114.4 93.1-207.5 207.5-207.5s207.5 93.1 207.5 207.5c.1 44.6-14 85.8-37.9 119.6z"></path><path id="path_x5F_1" class="st1" d="M12411.5 1956.5l-41.6-18.6 20.3-45.3 41.6 18.6-20.3 45.3zm-62.7-82.7l-41.6-18.6-20.3 45.3 41.6 18.6 20.3-45.3zm-83.1-37.2l-41.6-18.6-20.3 45.3 41.6 18.6 20.3-45.3zm249.3 111.8l-41.6-18.6-20.3 45.3 41.6 18.6 20.3-45.3zm83.1 37.3l-41.6-18.6-20.3 45.3 41.6 18.6 20.3-45.3zm-415.6-186.4l-41.6-18.6-20.3 45.3 41.6 18.6 20.3-45.3zm-332.4-149.2l-41.6-18.6-20.3 45.3 41.6 18.6 20.3-45.3zm831.1 372.9l-41.6-18.6-20.3 45.3 41.6 18.6 20.3-45.3zm-748-335.6l-41.6-18.6-20.3 45.3 41.6 18.6 20.3-45.3zm83.1 37.3l-41.6-18.6-20.3 45.3 41.6 18.6 20.3-45.3zm83.1 37.3l-41.6-18.6-20.3 45.3 41.6 18.6 20.3-45.3zm1246.6 559.2l-41.6-18.6-20.3 45.3 41.6 18.6 20.3-45.3zm-83.1-37.2l-41.6-18.6-20.3 45.3 41.6 18.6 20.3-45.3zm-498.6-223.7l-41.6-18.6-20.3 45.3 41.6 18.6 20.3-45.3zm415.5 186.4l-41.6-18.6-20.3 45.3 41.6 18.6 20.3-45.3zm374 167.8l-20.3 45.3 41.6 18.6 20.3-45.3-41.6-18.6zm-41.6-18.7l-41.6-18.6-20.3 45.3 41.6 18.6 20.3-45.3zm-83.1-37.3l-41.6-18.6-20.3 45.3 41.6 18.6 20.3-45.3zm-581.7-261l-41.6-18.6-20.3 45.3 41.6 18.6 20.3-45.3zm83.1 37.3l-41.6-18.6-20.3 45.3 41.6 18.6 20.3-45.3zm166.2 74.6l-41.6-18.6-20.3 45.3 41.6 18.6 20.3-45.3zm-83.1-37.3l-41.6-18.6-20.3 45.3 41.6 18.6 20.3-45.3z"></path><g id="user_x5F_1"><path class="st2" d="M11517.1 1736.4c-111.5 0-201.8-90.4-201.8-201.8 0-111.5 90.4-201.8 201.8-201.8s201.8 90.4 201.8 201.8c.1 111.4-90.3 201.8-201.8 201.8z"></path><path class="st1" d="M11593.7 1558.9c13.9-17.1 22.3-38.9 22.3-62.6 0-54.7-44.5-99.2-99.2-99.2s-99.2 44.5-99.2 99.2c0 23.7 8.4 45.5 22.3 62.6-45 9.4-79 49.3-79 97.1v16.3l7.4 7c40.4 38.1 93.2 59.1 148.5 59.1s108-21 148.5-59.1l7.4-7V1656c-.1-47.8-34-87.7-79-97.1zm-77-114.6c28.7 0 52.1 23.4 52.1 52.1 0 28.7-23.4 52.1-52.1 52.1-28.7 0-52.1-23.4-52.1-52.1.1-28.8 23.4-52.1 52.1-52.1zm0 247c-39.9 0-78.1-14-108.6-39.5 2.2-26.7 24.6-47.8 51.9-47.8h113.4c27.3 0 49.7 21.1 51.9 47.8-30.5 25.5-68.7 39.5-108.6 39.5z"></path></g></g><g id="community_x5F_1"><path id="random_x5F_circle" class="st3" d="M15027 5787.6c0 121.8-98.7 220.5-220.5 220.5s-220.5-98.7-220.5-220.5 98.7-220.5 220.5-220.5 220.5 98.7 220.5 220.5z"></path><g id="gear_x5F_with_x5F_user"><path class="st1" d="M14893.9 5468.4v-183.2l-127.6-10.6c-8.4-35.3-21.5-69.1-39.2-100.9l85.8-101.4-129.5-129.5-97.8 82.8c-31-19.1-64.1-33.7-99-43.7l-11-132.3h-183.2l-10.7 127.6c-35.3 8.4-69.1 21.5-100.9 39.2l-101.4-85.8-129.6 129.5 82.8 97.8c-19 30.9-33.7 64.1-43.7 99l-132.3 11v183.2l127.6 10.6c8.4 35.3 21.5 69.1 39.2 100.9l-85.8 101.4 129.5 129.5 97.8-82.7c31 19.1 64.2 33.7 99 43.7l11 132.3 183.2.1 10.7-127.7c35.3-8.4 69.1-21.5 100.9-39.2l101.4 85.8 129.6-129.5-82.8-97.8c19.1-31 33.7-64.2 43.7-99l132.3-11.1zm-174.7-17.2c-9.9 41.3-27.2 80.2-51.2 115.6l-10.3 15.1 77.5 91.6-66.8 66.8-93.8-79.4-14.9 9.1c-36.4 22.3-76.1 37.6-117.9 45.6l-18 3.4-10 119.5h-94.5l-10.2-122.4-17-4.1c-41.3-9.9-80.2-27.1-115.6-51.2l-15.1-10.3-91.6 77.5-66.8-66.8 79.3-93.8-9.1-14.8c-22.3-36.5-37.7-76.2-45.6-118l-3.4-18-119.5-10v-94.5l122.4-10.2 4.1-16.9c10-41.5 27.3-80.4 51.2-115.6l10.3-15.1-77.5-91.6 66.8-66.8 93.8 79.4 14.9-9.1c36.4-22.3 76.1-37.6 117.9-45.6l18-3.4 10-119.5h94.5l10.2 122.4 16.9 4.1c41.4 10 80.3 27.2 115.6 51.2l15.1 10.3 91.6-77.5 66.8 66.8-79.4 93.8 9.1 14.9c22.3 36.4 37.6 76.1 45.6 118l3.4 18 119.5 9.9v94.5l-122.4 10.2-3.9 16.9z"></path><path class="st1" d="M14375.3 5112.1c-68.4 0-132.7 26.6-181 75-48.4 48.4-75 112.7-75 181.1 0 68.4 26.6 132.7 75 181 48.4 48.4 112.7 75 181 75 68.4 0 132.7-26.6 181-75 48.4-48.4 75-112.7 75-181 0-68.4-26.6-132.7-75-181-48.3-48.4-112.6-75.1-181-75.1zm0 463.9c-48 0-93.4-16.1-130.2-45.8h1.6v-7.5c0-37.3 30.4-67.6 67.7-67.6h137.6c35.7 0 65 27.8 67.4 62.8-39 37.5-90 58.1-144.1 58.1zm-59.8-247c0-37.3 30.3-67.6 67.6-67.6s67.7 30.3 67.7 67.6-30.3 67.6-67.7 67.6c-37.3 0-67.6-30.3-67.6-67.6zm240.2 142.3c-16.7-33.7-49.3-58.1-87.9-63.4 19.3-20.7 31.1-48.5 31.1-78.9 0-63.9-52-115.8-115.9-115.8-63.9 0-115.8 52-115.8 115.8 0 30.5 11.8 58.2 31.1 78.9-44.2 6.1-80.4 37.2-94.1 78.5-24-34.5-36.9-75.4-36.9-118.2 0-55.5 21.6-107.7 60.9-147 39.2-39.2 91.4-60.9 146.9-60.9s107.7 21.6 146.9 60.9c39.2 39.2 60.9 91.4 60.9 146.9.2 36.8-9.3 72.2-27.2 103.2z"></path></g><g id="gear_x5F_filled_1_"><path id="gear_x5F_filled" class="st3" d="M13924.6 4344.2l79.8-8.4-1.9-87.3-77.7-4.8c-5.9-27.5-16.7-54.2-32.3-78.6l50.5-62.4-63.1-60.4-58.4 51.6c-24.4-15.8-51-26.8-78.4-32.7l-8.4-79.8-87.3 1.9-4.8 77.7c-27.5 5.9-54.2 16.7-78.6 32.4l-62.4-50.5-60.4 63.1 51.6 58.4c-15.8 24.4-26.8 51-32.7 78.4l-79.8 8.4 1.9 87.3 77.7 4.8c5.9 27.5 16.7 54.2 32.4 78.6l-50.6 62.4 63.1 60.4 58.4-51.6c24.4 15.8 51 26.7 78.4 32.7l8.4 79.8 87.3-1.9 4.8-77.7c27.5-5.9 54.2-16.7 78.6-32.4l62.4 50.6 60.4-63.1-51.6-58.4c15.8-24.4 26.7-51 32.7-78.5z"></path><path class="st1" d="M13692.8 4177.1c-64 0-115.9 51.9-115.9 115.9s51.9 115.9 115.9 115.9 115.9-51.9 115.9-115.9-51.9-115.9-115.9-115.9zm0 201.8c-47.4 0-85.9-38.5-85.9-85.9s38.5-85.9 85.9-85.9c47.4 0 85.9 38.5 85.9 85.9s-38.4 85.9-85.9 85.9z"></path></g><path class="st1" d="M14839.5 5791.1l-65.5-10c2.6-16.9 5-33.8 7.1-50.5l65.7 8.4c-2.2 17.2-4.7 34.7-7.3 52.1zm13.3-104.3l-65.9-6.8c1.7-16.9 3.3-34 4.5-50.7l66.1 5c-1.3 17.4-2.9 35-4.7 52.5zm8-104.9l-66.2-3.2c.8-17 1.4-34.1 1.7-50.7l66.2 1.3c-.2 17.2-.8 34.9-1.7 52.6zm-64.2-104.7c-.2-16.9-.7-34-1.4-50.6l66.2-2.9c.8 17.4 1.3 35.1 1.5 52.8l-66.3.7zm-4.5-101.1c-1.3-16.8-3-33.8-4.8-50.3l65.8-7.5c2 17.3 3.7 35 5.1 52.6l-66.1 5.2zm-11.5-100.3c-2.5-16.6-5.4-33.4-8.6-49.6l65-12.6c3.3 17.1 6.4 34.7 9 52.2l-65.4 10zm-19.2-98.8c-3.9-16.3-8.1-32.7-12.6-48.7l63.8-18c4.8 16.9 9.2 34.2 13.3 51.4l-64.5 15.3zm-27.3-96.7c-5.2-15.9-10.9-31.8-16.8-47.3l61.9-23.6c6.3 16.4 12.3 33.3 17.8 50.1l-62.9 20.8zm-35.8-93.7c-6.7-15.3-13.8-30.6-21.1-45.4l59.4-29.4c7.8 15.8 15.4 32 22.5 48.3l-60.8 26.5zm-44.4-89.8c-8.1-14.5-16.6-29.1-25.4-43.1l56.2-35c9.3 15 18.4 30.5 27.1 45.9l-57.9 32.2zm-52.9-84.9c-9.5-13.6-19.4-27.3-29.5-40.5l52.5-40.3c10.8 14 21.4 28.5 31.4 43.1l-54.4 37.7zm-61-79.5c-10.7-12.7-22-25.2-33.3-37.4l48.4-45.2c12.1 13 24 26.4 35.5 39.8l-50.6 42.8zm-68.5-73.3c-11.9-11.6-24.3-23.1-36.8-34.2l44-49.5c13.3 11.8 26.4 24 39 36.3l-46.2 47.4zm-75.1-66.7c-12.9-10.5-26.3-20.8-39.8-30.8l39.4-53.2c14.3 10.6 28.4 21.5 42.1 32.6l-41.7 51.4zm-80.8-59.9c-13.8-9.3-28-18.6-42.3-27.4l34.9-56.3c15.1 9.3 30.1 19.1 44.6 28.9l-37.2 54.8zm-85.8-53.1c-14.5-8.2-29.5-16.3-44.5-24l30.4-58.9c15.7 8.1 31.4 16.6 46.7 25.2l-32.6 57.7zm-89.8-46.4c-15.2-7.1-30.7-14.1-46.2-20.7l25.9-61c16.2 6.9 32.5 14.2 48.4 21.6l-28.1 60.1zm-93.2-39.6c-15.7-6-31.7-11.8-47.6-17.3l21.5-62.7c16.7 5.7 33.4 11.8 49.9 18.1l-23.8 61.9zm-95.9-32.9c-16.3-4.9-32.7-9.6-48.8-13.8l16.8-64.1c16.9 4.4 34.1 9.3 51.2 14.5l-19.2 63.4zm-97.9-25.5c-30.6-6.6-48.6-9.1-48.8-9.2l8.9-65.6c.8.1 20.5 2.8 53.9 10.1l-14 64.7z"></path></g><path id="baseline" class="st1" d="M11771.7 5713.3v49.2H2067.5v-49.2h9704.2zm-9988.1 49.2h238.5v-49.2h-238.5v49.2zm-239.2-124.6l-33.6-36-145.9 135.9 145.9 136 33.6-36-80.8-75.4h265.8v-49.2h-265.9l80.9-75.3z"></path><path id="branches" class="st1" d="M5250.1 6272.8v89.1h-93c-9.2-50.8-47.9-91.6-97.6-103.8v-230.5h-239.6v-83.3h-428.1v83.3h-276.9v197.8L3978.4 6362h-99.1c-11.1-61.1-64.7-107.6-129-107.6-72.2 0-131 58.8-131 131.1 0 72.2 58.8 131 131 131 64.3 0 117.9-46.5 129-107.6h99l136.6 136.6v197.8h276.9v83.3h428.1v-83.3h239.6v-230.5c49.7-12.2 88.4-53 97.6-103.8h93v89.1h225.2v-225.2h-225.2zm-1499.7 196.7c-46.4 0-84.1-37.7-84.1-84.1 0-46.4 37.7-84.2 84.1-84.2 46.4 0 84.2 37.8 84.2 84.2-.1 46.4-37.8 84.1-84.2 84.1zm688.3-478.4H4773v122.4h-334.3v-122.4zM4245 6401.3l-87.1 87h-33.8l-82.1-82.1v-41.6l82.2-82.2h33.7l87.1 87.1v31.8zm528 378.3h-334.3v-122.4H4773v122.4zm46.9-83.3v-85.9h-428.1v85.9h-230v-145.6l142-141.9h88v84.6h428.1v-216.1h-428.1v84.6h-88.1L4161.8 6220v-145.5h230v85.9h428.1v-85.9h192.7v180.8c-64.9 7.7-115.4 63.1-115.4 130.1s50.5 122.4 115.4 130.1v180.8h-192.7zm-381.2-249.8v-122.4H4773v122.4h-334.3zm589.5 23c-46.4 0-84.1-37.7-84.1-84.1 0-46.4 37.7-84.2 84.1-84.2 46.4 0 84.1 37.8 84.1 84.2 0 46.4-37.7 84.1-84.1 84.1zm400.3-18.4H5297v-131.4h131.5v131.4z"></path><path id="robot" class="st1" d="M8048.3 4817.4h-288.7V5209h288.7v-391.6zm-46.1 345.4h-196.4v-299.2h196.4v299.2zm309.6-232.6h-208.2V4884h208.2v46.2zm0 102.9h-208.2v-46.2h208.2v46.2zm0 102.9h-208.2v-46.2h208.2v46.2zm-301.3-698.6h-66.2v-46.2h66.2v46.2zm161.7 0H8106v-46.2h66.2v46.2zm-6 52.8l24.1 39.3c-40.9 25.1-87.8 38.3-135.7 38.3s-94.9-13.2-135.7-38.3l24.1-39.3c68.9 42.2 154.4 42.2 223.2 0zm484.7 846.4v-267.8c0-65.4-25.5-126.8-71.7-173.1-36.9-36.9-83.5-60.6-134.1-68.6v-112.5h-290.3v-46.7h143.3v-88.2h88.2v-220.5h-88.2V4271h-479.7v88.2h-88.2v220.5h88.2v88.2h180.1v46.7h-327v111.9c-52.1 7.4-100.2 31.3-138.1 69.2-46.2 46.2-71.7 107.7-71.7 173.1v273.9c-39 19.8-65.8 60.4-65.8 107.1 0 66.2 53.9 120.1 120.1 120.1v-46.2c-40.7 0-73.9-33.2-73.9-73.9 0-40.8 33.1-73.9 73.9-73.9 40.8 0 73.9 33.2 73.9 73.9h46.2c0-66.2-53.9-120.1-120.1-120.1-2.7 0-5.4.1-8.1.3v-261.2c0-97.6 70.7-178.9 163.6-195.5v438.6h102.9v27.3h-44.1v156.4h44.1v42h-80.8v207.8h340.1V5311.7h49.4V5745.4h340.1v-207.8h-80.8v-42h44.1v-156.4h-44.1v-27.3h102.9V4874c90.9 18.2 159.6 98.6 159.6 194.7v261.1c-63.4 3.2-113.9 55.8-113.9 119.9h46.2c0-40.8 33.2-73.9 73.9-73.9 40.8 0 73.9 33.2 73.9 73.9 0 40.8-33.2 73.9-73.9 73.9v46.2c66.2 0 120.1-53.9 120.1-120.1-.2-52.1-33.7-96.6-80.3-113.1zm-310.7-931.3v128.2h-42v-128.2h42zm-563.8 128.2v-128.2h42v128.2h-42zm88.2-216.4H8252v304.6h-387.4v-304.6zm180 351.7h64.1v45.7h-64.1v-45.7zm-268.2 780.7v-64.1h64.1v64.1h-64.1zm-36.7 134.3h247.8v115.5h-247.8v-115.5zm247.8-46.2h-167v-42h66.2v-156.4h-66.2v-27.3h167v225.7zm389.4 161.7h-247.8v-115.5h247.8v115.5zm-36.7-313.9v64.1h-64.1v-64.1h64.1zm-44.1-46.2H8230v156.4h66.1v42h-167v-225.8h167v27.4zm102.9-73.5h-681.4v-505H8399v505z"></path></g></svg>