<svg baseProfile="basic" class="banner" xmlns="http://www.w3.org/2000/svg" viewBox="0 0 15360 8640"><style>.st0{fill:#51C8D4;} .st1{fill:#282D33;} .st2{fill:#FCA531;} .st3{fill:#FFFFFF;}</style><g id="group_3"><path id="play" class="st1" d="M11886.4 4331.6l-119.6-69v276.2l119.6-69 119.6-69.1-119.6-69.1zm-23.6 97.2l-48.7 28.1v-112.4l48.7 28.1 48.7 28.1-48.7 28.1z"></path><path id="stats" class="st2" d="M2551.7 5790.4h47.9v87.6h-47.9v-87.6zm206.6 136.8h47.9v-136.8h-47.9v136.8zM2655 5878h47.9v-87.6H2655v87.6zm-309.8 0h47.9v-87.6h-47.9v87.6zm-103.2 49.2h47.9v-136.8H2242v136.8zm206.5-49.2h47.9v-87.6h-47.9v87.6zm722.8 0h47.9v-87.6h-47.9v87.6zm-309.8 0h47.9v-87.6h-47.9v87.6zm413-87.6v136.8h47.9v-136.8h-47.9zm-309.7 87.6h47.9v-87.6h-47.9v87.6zm103.2 0h47.9v-87.6H3068v87.6z"></path><path id="star_1_" class="st3" d="M6267.6 6167.2h-70.2v-48.7h70.2v48.7zm-56.9-139.1l-42.2-24.4-35.1 60.8 42.2 24.4 35.1-60.8zm-113.9 40.6l-35.1-60.8-42.2 24.3 35.1 60.8 42.2-24.3zm-56.8 58.1h-70.2v48.7h70.2v-48.7zm64 102.6l-42.2-24.4-35.1 60.8 42.2 24.4 35.1-60.8zm113.8 32.3l-35.1-60.8-42.2 24.3 35.1 60.8 42.2-24.3z"></path><path id="star_2_" class="st3" d="M2445.4 6443h-70.2v-48.7h70.2v48.7zm-57-139.1l-42.2-24.4-35.1 60.8 42.2 24.4 35.1-60.8zm-113.8 40.6l-35.1-60.8-42.2 24.3 35.1 60.8 42.2-24.3zm-56.9 58h-70.2v48.7h70.2v-48.7zm64 102.7l-42.2-24.4-35.1 60.8 42.2 24.4 35.1-60.8zm113.9 32.3l-35.1-60.8-42.2 24.3 35.1 60.8 42.2-24.3z"></path><g id="question_2_"><path id="question_1_" class="st3" d="M10619.5 3091.4h-47V3031h47v60.4zm0-110.7h-47v-52.9c0-29.9 18-56.7 53.6-79.6l54.3-44.5.2.3 6.4-5.2 1.2-.8c15.1-9.6 33-24.4 33-40.8v-52.9c0-29.9-24.3-54.3-54.2-54.3h-62.4c-29.9 0-54.2 24.3-54.2 54.3v24.7h-47v-24.7c0-55.8 45.4-101.2 101.2-101.2h62.4c55.8 0 101.2 45.4 101.2 101.2v52.9c0 29.9-18 56.7-53.6 79.6l-54.3 44.5-.2-.2-6.4 5.2-1.2.8c-15.1 9.6-33.1 24.4-33.1 40.7v52.9z"></path><path id="sparcles_1_" class="st3" d="M10872.4 2678.7l-10.9-48.9 107-23.8 10.9 48.9-107 23.8zm-33.8-76.3l-35.4-35.4 77.5-77.5 35.4 35.4-77.5 77.5zm-62.8-58.4l-48.9-10.9 23.8-107 48.9 10.9-23.8 107z"></path></g><path id="cursor" class="st3" d="M11749.3 6194h-45.9v-103.1h45.9V6194zm-108.5 43.1l-89.3-51.5-22.9 39.7 89.3 51.5 22.9-39.7zm-106.2 167.1l23 39.7 89.2-51.6-23-39.7-89.2 51.6zm180.9 124h45.9v-103.1h-45.9v103.1zm214.7-313.4l-22.9-39.7-89.3 51.5 22.9 39.7 89.3-51.5zm89 298.7l120-52.5-362.3-153.3 153.3 362.3 55.8-127.6 126.7 126.6 31.1-31.1-124.6-124.4z"></path><path id="star_3_" class="st3" d="M5577.2 2850.9H5507v-48.7h70.2v48.7zm-56.9-139.1l-42.2-24.4-35.1 60.8 42.2 24.4 35.1-60.8zm-113.8 40.6l-35.1-60.8-42.2 24.3 35.1 60.8 42.2-24.3zm-56.9 58.1h-70.2v48.7h70.2v-48.7zm64 102.6l-42.2-24.4-35.1 60.8 42.2 24.4 35.1-60.8zm113.8 32.3l-35.1-60.8-42.2 24.3 35.1 60.8 42.2-24.3z"></path><path id="arrow" class="st3" d="M6704.7 6519.4h230.1v47.5h-230.1v-47.5zm-120.5 47.5h76.7v-47.5h-76.7v47.5zm613.9-154.9l-32.4 34.7 78 72.7h-256.5v47.5h256.5l-78.1 72.7 32.4 34.7 140.8-131.2-140.7-131.1z"></path><path id="abstract_x5F_lines_x5F_2" class="st2" d="M8023.8 6061.4h-174.5v-52.5h174.5v52.5zm48.7-52.5v52.5h225.6v-52.5h-225.6zm-333.5 159h370v-52.5h-370v52.5z"></path><path id="abstract_x5F_lines_1_" class="st3" d="M9676.6 6505.3H9521v-47.5h155.6v47.5zm279.7-47.4h-220.5v47.5h220.5v-47.5zm-165.9 97.4h-329.9v47.5h329.9v-47.5zm-386.5 0h-80v47.5h80v-47.5zm60.9-97.4h-61.1v47.5h61.1v-47.5z"></path><g id="pluses"><path id="plus_x5F_1_1_" class="st3" d="M4498 3347.3v55.9h-40.9v-55.9h-55.9v-40.9h55.9v-55.9h40.9v55.9h55.9v40.9H4498z"></path><path id="plus_x5F_2_1_" class="st1" d="M10181.8 2851.8v99.4h-47.8v-99.4h-102.5V2804h102.5v-103.6h47.8V2804h102.5v47.8h-102.5z"></path><path id="plus_x5F_3_1_" class="st3" d="M10045.9 2243.9v55.9h-40.9v-55.9h-55.9V2203h55.9v-55.9h40.9v55.9h55.9v40.9h-55.9z"></path><path id="plus_x5F_4_1_" class="st3" d="M13135.6 3197.2v55.9h-40.9v-55.9h-55.9v-40.9h55.9v-55.9h40.9v55.9h55.9v40.9h-55.9z"></path></g></g></svg>