<svg baseProfile="basic" class="banner" xmlns="http://www.w3.org/2000/svg" viewBox="0 0 15360 8640"><style>.st0{fill:#51C8D4;} .st1{fill:#282D33;} .st2{fill:#FCA531;} .st3{fill:#FFFFFF;}</style><g id="group_1"><path id="chars_x5F_cut" class="st1" d="M4281.9 3550.6c9.2 9.1 9.3 24 .2 33.2-9.1 9.2-24 9.3-33.2.2-58.3-57.5-124-110.1-195-156.3-70.4-45.8-146-85.3-224.9-117.5-79.3-32.4-161.7-57.3-245-74.1-84.9-17.1-170.8-25.8-255.2-25.8-88 0-175.4 8.1-260 24.1-82.7 15.6-163.6 38.9-240.7 69.4-75.8 29.9-148.7 67.1-216.6 110.4-67.4 43-130.6 92.5-187.8 147.1-57.3 54.7-109.2 115.1-154.3 179.5-45.5 65-84.5 134.9-116 207.5-32 73.9-56.6 151.7-73 231.2-16.8 81.3-25.4 165.5-25.4 250.2 0 85.5 8.4 170.5 25 252.7 16.2 80.3 40.5 158.8 72.1 233.5 31.1 73.5 69.6 144.1 114.6 209.8 44.6 65.2 95.9 126.3 152.5 181.6 56.6 55.3 119.1 105.4 185.7 148.9 67.2 43.9 139.3 81.5 214.3 111.8 12 4.9 17.8 18.5 13 30.6-3.7 9.1-12.5 14.7-21.8 14.7-2.9 0-5.9-.6-8.8-1.7-77.9-31.5-152.7-70.5-222.4-116-69.2-45.2-134.1-97.2-192.9-154.6-58.8-57.5-112.1-121-158.4-188.7-46.7-68.3-86.8-141.7-119.1-218-32.8-77.6-58-159.2-74.9-242.5-17.2-85.2-26-173.3-26-262 0-87.9 8.9-175.3 26.3-259.8 17.1-82.6 42.6-163.4 75.9-240.3 32.7-75.6 73.3-148.2 120.6-215.8 46.9-67 100.8-129.7 160.3-186.5 59.4-56.7 125-108.1 195-152.7 70.4-44.9 146-83.4 224.6-114.5 79.8-31.5 163.6-55.7 249.2-71.8 87.4-16.5 177.8-24.9 268.7-24.9 87.6 0 176.6 9 264.5 26.7 86.2 17.4 171.5 43.1 253.4 76.6 81.6 33.3 159.9 74.2 232.8 121.6 74.1 47.9 142.2 102.5 202.7 162.2zM9901.7 4633c-23.1-43.2-52.1-84-86.2-121.1-31.4-34.2-68.1-66.5-109.2-95.9l-6.4 1095.6c88-65.7 156.4-145.3 203.4-236.8 48.5-94.6 73.2-200.2 73.2-313.9.2-63.3-6.2-123.4-19.1-178.6-12.4-53.2-31.2-103.3-55.7-149.3zm39-1159.3c10.1-21.5 2.9-47.2-16.9-60.3-58.5-38.7-122.3-74.1-189.6-105.4-68.2-31.6-140.1-58.9-213.7-81.2-75.6-22.8-153.2-40.5-230.9-52.3-80.6-12.3-161.7-18.6-241.3-18.6-134.6 0-260.3 16.5-373.5 49-113.1 32.5-212.3 80.4-294.7 142.6-84.1 63.5-149.5 140.8-194.1 229.5-45.9 91.1-69.1 192.9-69.1 302.5 0 62.2 6.6 121.2 19.6 175.4 12.5 52.1 31.2 101.2 55.7 146.1 23.1 42.3 51.9 82.1 85.8 118.3 31.2 33.3 67.7 64.7 108.5 93.3 69.2 48.4 153.5 91.1 258 130.3L8530 3441.1l1410.7 32.6zm-2632.8 457.6c-33-75.9-73.9-148.8-121.6-216.7-47.2-67.2-101.6-130.2-161.7-187.2-59.9-56.9-126.1-108.4-196.7-153.1-71-45-147.3-83.6-226.6-114.7-80.5-31.5-165.1-55.7-251.5-71.9-12.8-2.4-25 6-27.4 18.8-2.4 12.8 6 25 18.8 27.4 83.5 15.6 165.3 39 243 69.5 76.6 30 150.1 67.2 218.6 110.6 68 43.1 131.7 92.7 189.5 147.5 57.8 54.9 110.1 115.5 155.6 180.1 45.9 65.3 85.2 135.4 117 208.4 32.3 74.3 57 152.4 73.6 232.3 17 81.8 25.6 166.4 25.6 251.7 0 85.3-8.6 170-25.6 252-16.6 80.1-41.3 158.5-73.6 233-31.7 73.3-71.1 143.8-116.9 209.5-45.5 65.1-97.8 126.1-155.6 181.4-57.7 55.3-121.5 105.3-189.5 148.8-68.5 43.8-142.1 81.4-218.6 111.7-77.8 30.8-159.6 54.4-243 70.3-12.8 2.4-21.1 14.7-18.7 27.5 2.1 11.3 12 19.1 23.1 19.1 1.5 0 2.9-.1 4.4-.4 86.4-16.4 171.1-40.8 251.6-72.7 79.3-31.4 155.6-70.4 226.6-115.8 70.5-45.1 136.7-97.1 196.6-154.4 60-57.4 114.4-120.8 161.6-188.4 47.7-68.2 88.6-141.5 121.5-217.7 33.5-77.5 59.3-159 76.5-242.2 17.6-85.1 26.5-173 26.5-261.5s-8.9-176.3-26.5-261.2c-17.3-83.2-43.1-164.4-76.6-241.7zm-2415.8 17.4c31.7-73.1 71.1-143.2 117-208.5 45.4-64.6 97.8-125.2 155.6-179.9 9.4-8.9 9.8-23.8.9-33.2-8.9-9.4-23.8-9.8-33.2-.9-60.1 56.9-114.5 119.8-161.7 187-47.7 67.9-88.7 140.8-121.6 216.8-33.6 77.3-59.3 158.7-76.5 242-17.6 85.1-26.5 173.3-26.5 262.2 0 88.4 8.9 176.4 26.5 261.5 17.2 83.2 42.9 164.7 76.5 242.2 33 76.2 73.9 149.5 121.5 217.7 47.2 67.6 101.6 131 161.6 188.4 4.6 4.4 10.4 6.5 16.2 6.5 6.2 0 12.4-2.4 17-7.3 9-9.4 8.6-24.3-.7-33.2-57.8-55.3-110.1-116.3-155.6-181.4-45.9-65.7-85.2-136.1-116.9-209.5-32.3-74.6-57-153-73.6-233-17-81.9-25.6-166.7-25.6-252 0-85.7 8.6-170.7 25.6-252.7 16.5-80.1 41.3-158.4 73.5-232.7zm7686.5 998.8h-1.8c-12.4 0-24.3 4.8-33.2 13.4-178.5 171.7-418.7 274.2-642.5 274.2-446.3 0-798.5-335.6-817.6-770.7l-280.4 256.6 722.2 749.1 978.5-171.6 108.7-335.1c-8.7-9.7-20.9-15.4-33.9-15.9zm270.9-1396.6c-60.6-59.8-128.8-114.4-202.7-162.5-73-47.5-151.6-88.5-233.4-122-82.2-33.6-167.7-59.4-254.2-76.8-88.1-17.8-177.3-26.8-265.1-26.8-91.2 0-181.9 8.4-269.6 25-85.8 16.2-169.9 40.4-249.8 72-78.8 31.1-154.5 69.7-225 114.7-70 44.7-135.7 96.1-195.2 152.9-59.6 56.9-113.6 119.7-160.4 186.7-47.3 67.6-87.9 140.3-120.7 215.9-33.3 76.9-58.9 157.8-76 240.4-8.8 42.7-13.2 153.6-13.2 264l958.5-980.7c15.4-19.1 1324.3 114.4 1306.8 97.2z"></path><path id="chars" class="st3" d="M4015.1 4995.4l242.6 270.3c-246 242.6-596 398.5-939.1 398.5-710.4 0-1261.4-537.1-1261.4-1233.6 0-689.6 557.9-1219.8 1275.2-1219.8 343.1 0 686.1 142.1 921.8 374.2l-239.1 298c-176.7-190.6-429.7-308.4-675.7-308.4-485.1 0-866.3 374.3-866.3 852.5s381.2 855.9 866.3 855.9c242.5 0 492-110.9 675.7-287.6zm8561.7 0c-183.7 176.7-433.2 287.6-675.7 287.6-485.1 0-866.3-377.7-866.3-855.9s381.2-852.5 866.3-852.5c246 0 499 117.8 675.7 308.4l239.1-298c-235.6-232.2-578.7-374.2-921.8-374.2-717.3 0-1275.2 530.2-1275.2 1219.8 0 696.5 551 1233.6 1261.4 1233.6 343.1 0 693.1-155.9 939.1-398.5l-242.6-270.3zM7364.1 4434c0 693.1-561.4 1230.2-1285.6 1230.2S4792.8 5127.1 4792.8 4434c0-696.5 561.4-1223.2 1285.6-1223.2S7364.1 3740.9 7364.1 4434zm-419.3 0c0-481.7-388.1-855.9-862.9-855.9-478.2 0-873.3 374.3-873.3 855.9 0 481.7 398.5 862.9 873.3 862.9 474.8 0 862.9-381.2 862.9-862.9zm1677.3-592.6c0-162.9 155.9-253 395-253 183.7 0 447 65.8 710.4 225.2l169.8-360.4c-225.2-149-533.7-249.5-849-249.5-526.7 0-883.6 259.9-883.6 675.7 0 862.9 1309.9 561.4 1309.9 1102 0 187.1-169.8 294.6-454 294.6-259.9 0-571.8-124.8-821.3-353.5L8022.6 5276c249.5 228.7 609.9 384.6 991.1 384.6 533.7 0 914.8-266.8 914.8-700 3.5-873.1-1306.4-589-1306.4-1119.2z"></path><g id="head"><path class="st1" d="M3413.2 3470.5h-41.9v-145h41.9v145zm373.2-48.5l-39.4-14.3-49.6 136.2 39.4 14.3 49.6-136.2zm317.8 218.2l-32.1-27-93.1 111 32.1 27 93.1-111zm223.9 313.8l-21-36.3-125.5 72.5 21 36.3 125.5-72.5zm103.1 371.5l-7.3-41.3-142.8 25.2 7.3 41.3 142.8-25.2zm-1757.4 814.4l-32.1-27-93.1 111.1 32.1 27 93.1-111.1zm-202.7-265.8l-21-36.3-125.5 72.5 21 36.3 125.5-72.5zm-99.5-319.2l-7.3-41.3-142.7 25.3 7.3 41.3 142.7-25.3zm22.8-375.3l-142.8-25.1-7.3 41.3 142.8 25.1 7.3-41.3zm142.6-303.5l-125.5-72.4-21 36.3 125.5 72.4 21-36.3zm237.8-236.5l-93.2-111-32.1 27 93.2 111 32.1-27zm304.3-140.8l-49.7-136.2-39.4 14.4 49.7 136.2 39.4-14.4zm609 2005.9h324.8c63.9 0 124-24.9 169.2-70.1 45.2-45.2 70.1-105.3 70.1-169.2v-298.7h203.5l-166.9-289-110-190.6c.4-10.3.7-20.8.7-31.3 0-112.1-22-220.9-65.3-323.3-41.8-98.9-101.7-187.8-178-264-76.3-76.3-165.1-136.2-264-178-102.4-43.3-211.2-65.3-323.4-65.3-112.1 0-220.9 22-323.3 65.3-98.9 41.8-187.7 101.7-264 178-76.3 76.3-136.2 165.1-178 264-43.3 102.4-65.3 211.2-65.3 323.3 0 111.9 21.9 220.6 65.1 322.9 40.6 96.1 98.3 182.8 171.5 257.6v690.1h41.9V5019l-6.1-6.1c-148.6-148.9-230.4-346.8-230.4-557.1 0-434.9 353.8-788.7 788.7-788.7 434.9 0 788.8 353.8 788.8 788.7 0 11.7-.5 23.7-.9 35.4l-.2 6.4 116 201.1 130.6 226.1h-172.8v340.6c0 108.8-88.5 197.4-197.3 197.4h-366.7v263.6h41.9v-221.7z"></path><path class="st1" d="M3358.4 5102.3c-86.1 0-169.7-16.9-248.3-50.2-76-32.1-144.2-78.1-202.8-136.7-58.6-58.6-104.6-126.8-136.7-202.8-33.3-78.7-50.1-162.2-50.1-248.3 0-86.1 16.9-169.7 50.1-248.4 32.1-76 78.1-144.2 136.7-202.8 58.6-58.6 126.8-104.6 202.8-136.7 78.7-33.3 162.2-50.2 248.3-50.2v41.9c-328.7 0-596.1 267.4-596.1 596.1 0 328.7 267.4 596.1 596.1 596.1 328.7 0 596.1-267.4 596.1-596.1h41.9c0 86.1-16.9 169.7-50.1 248.3-32.1 76-78.1 144.2-136.7 202.8-58.6 58.6-126.8 104.6-202.8 136.7-78.7 33.4-162.2 50.3-248.4 50.3zm637.7-659.7l-41.9 1.4c.2 6.8.3 13.6.3 20.3h41.9c.1-7.2 0-14.5-.3-21.7zm-2.7-41.6c-1.4-13.8-3.2-27.7-5.4-41.3l-41.4 6.8c2.1 12.7 3.8 25.7 5.1 38.6l41.7-4.1zm-13.6-82.2c-3.1-13.5-6.8-27-10.8-40.2l-40.1 12.2c3.8 12.4 7.1 25 10.1 37.6l40.8-9.6zm-24.2-79.8c-4.9-13-10.3-25.9-16-38.5l-38.2 17.4c5.4 11.8 10.4 23.9 14.9 36l39.3-14.9zm-34.5-75.9c-6.5-12.2-13.6-24.3-20.9-36.1l-35.6 22.2c6.8 11 13.4 22.3 19.5 33.7l37-19.8zm-44.1-70.7c-8.1-11.2-16.6-22.4-25.4-33l-32.4 26.6c8.2 10 16.2 20.4 23.7 30.9l34.1-24.5zm-52.8-64.3c-9.5-10.1-19.4-20-29.5-29.5l-28.7 30.6c9.4 8.8 18.7 18.1 27.5 27.5l30.7-28.6zm-60.8-57c-10.7-8.8-21.8-17.3-33-25.4l-24.5 34.1c10.5 7.5 20.9 15.5 30.9 23.7l26.6-32.4zm-67.6-48.5c-11.7-7.3-23.9-14.3-36-20.9l-19.8 37c11.4 6.1 22.7 12.7 33.7 19.5l22.1-35.6zm-73.3-39.4c-12.6-5.7-25.5-11.1-38.4-16l-14.8 39.2c12.1 4.6 24.1 9.6 35.9 14.9l17.3-38.1zm-77.9-29.4c-13.2-4-26.8-7.7-40.2-10.8l-9.6 40.8c12.6 2.9 25.2 6.3 37.6 10.1l12.2-40.1zm-81.1-19c-13.6-2.3-27.5-4.1-41.3-5.5l-4.1 41.7c12.9 1.3 25.9 3 38.6 5.1l6.8-41.3zm-83.4-8.3c-7.2-.2-14.5-.4-21.7-.4v41.9c6.7 0 13.5.1 20.3.3l1.4-41.8z"></path><path class="st1" d="M3358.4 4900.7v-41.9c217.5 0 394.5-177 394.5-394.5 0-217.6-177-394.6-394.5-394.6s-394.5 177-394.5 394.6H2922c0-58.9 11.5-116.1 34.3-169.9 22-52 53.4-98.7 93.5-138.7 40.1-40.1 86.7-71.5 138.7-93.5 53.8-22.8 111-34.3 169.9-34.3 58.9 0 116.1 11.5 169.9 34.3 52 22 98.7 53.5 138.7 93.5 40.1 40.1 71.5 86.8 93.5 138.7 22.8 53.8 34.3 111 34.3 169.9 0 58.9-11.5 116-34.3 169.9-22 52-53.5 98.6-93.5 138.7-40.1 40.1-86.8 71.5-138.7 93.5-53.8 22.8-110.9 34.3-169.9 34.3zm-394-416.5c-.3-6.6-.5-13.3-.5-19.9H2922c0 7.3.2 14.8.5 22l41.9-2.1zm335.4 370.2c-12.7-1.9-25.4-4.4-37.9-7.6l-10.2 40.7c13.8 3.5 27.9 6.3 41.9 8.4l6.2-41.5zm-74.8-18.8c-12.1-4.3-24-9.3-35.6-14.8l-18 37.9c12.8 6.1 26.1 11.6 39.4 16.4l14.2-39.5zm-69.7-33.1c-11-6.6-21.8-13.8-32.1-21.5l-25 33.7c11.4 8.5 23.3 16.5 35.5 23.8l21.6-36zm-61.9-46c-9.5-8.6-18.7-17.8-27.3-27.3l-31.1 28.2c9.5 10.5 19.7 20.7 30.2 30.2l28.2-31.1zm-51.8-57.2c-7.7-10.3-14.9-21.1-21.5-32.1l-35.9 21.6c7.3 12.2 15.3 24.1 23.8 35.5l33.6-25zm-39.8-66.1c-5.5-11.6-10.5-23.6-14.8-35.7l-39.5 14.2c4.8 13.4 10.3 26.6 16.4 39.5l37.9-18zm-26-72.7c-3.1-12.4-5.7-25.2-7.5-37.9l-41.5 6.2c2.1 14.1 4.9 28.2 8.3 41.9l40.7-10.2zm382.6 298.3c-6.7 0-13.4-.2-19.9-.5l-2.1 41.9c7.3.4 14.7.5 22 .5v-41.9zm165.8-228.8c44.3-44.3 68.7-103.2 68.7-165.8 0-129.3-105.2-234.5-234.5-234.5-62.6 0-121.5 24.4-165.8 68.7-44.3 44.3-68.7 103.2-68.7 165.8 0 62.6 24.4 121.5 68.7 165.8 44.3 44.3 103.2 68.7 165.8 68.7s121.6-24.4 165.8-68.7zm26.8-165.8c0 106.1-86.4 192.5-192.6 192.5-106.1 0-192.5-86.4-192.5-192.5 0-106.2 86.4-192.5 192.5-192.5 106.2 0 192.6 86.3 192.6 192.5z"></path></g><path id="spacles_x5F_on_x5F_s_1_" class="st3" d="M7752 5404.1c0 55.2-44.7 99.9-99.9 99.9s-99.9-44.7-99.9-99.9 44.7-99.9 99.9-99.9 99.9 44.7 99.9 99.9zm550.7-2927.6c-41.4 0-74.9 33.5-74.9 74.9s33.5 74.9 74.9 74.9 74.9-33.5 74.9-74.9-33.5-74.9-74.9-74.9zm2080.9 2774.1h-79.9v95.5h79.9v-95.5zm-111.1 121.5l-82.7-47.8-39.9 69.2 82.7 47.8 39.9-69.2zm6.8 178.3l-39.9-69.2-82.7 47.8 39.9 69.2 82.7-47.8zm117.9 14h-79.9v95.5h79.9v-95.5zm153.9-47.3l-82.7-47.8-39.9 69.2 82.7 47.8 39.9-69.2zm-6.8-135.5l-40-69.2-82.7 47.8 40 69.2 82.7-47.8zM7802.1 2655.9h-79.9v79.9h79.9v-79.9zm-124 98.2l-56.5-56.5-56.5 56.5 56.5 56.5 56.5-56.5zm-74.8 100.6h-79.9v79.9h79.9v-79.9zm74.8 180.6l-56.5-56.5-56.5 56.5 56.5 56.5 56.5-56.5zm124 18.3h-79.9v79.9h79.9v-79.9zm157.2-18.3l-56.5-56.5-56.5 56.5 56.5 56.5 56.5-56.5zm41.7-180.6h-79.9v79.9h79.9v-79.9zm-41.7-100.6l-56.5-56.5-56.5 56.5 56.5 56.5 56.5-56.5zm1076.1-59.1h-79.9v302.7h79.9V2695zm-585.3 450.2L8298.7 2883l-69.2 39.9 151.4 262.2 69.2-39.9zm-433.2 420.4l-262.1-151.4-40 69.2 262.1 151.4 40-69.2zm-165 580.6h-302.7v79.9h302.7v-79.9zM10321 4844l-262.2-151.4-40 69.2 262.2 151.4 40-69.2zm165.5-742.7h-302.6v79.9h302.6v-79.9zm-187.9-656.8l-39.9-69.2-262.2 151.3 39.9 69.2 262.2-151.3zm-531.2-544l-69.2-40-151.4 262.1 69.2 40 151.4-262.1z"></path><g id="hand_x5F_layer"><path class="st1" d="M6072.4 3859.9h58.2v91.4h-58.2v-91.4zm-163.3 29.2l23.6 88.3 56.2-15-23.6-88.3-56.2 15zm-150.3 70.4l45.8 79.2 50.4-29.1-45.8-79.2-50.4 29.1zm-126.9 107l64.7 64.7 41.2-41.2-64.7-64.7-41.2 41.2zm13.4 131.5l-79.2-45.7-29.1 50.4 79.2 45.7 29.1-50.4zm-61.4 128.2l-88.4-23.7-15.1 56.2 88.4 23.7 15.1-56.2zm-26 139.7h-91.5v58.2h91.5v-58.2zm11 141.7l-88.3 23.7 15.1 56.2 88.3-23.7-15.1-56.2zm47.3 134l-79.2 45.7 29.1 50.4 79.2-45.7-29.1-50.4zm15.7 181.9l41.2 41.2 64.7-64.7-41.2-41.2-64.7 64.7zm833.5-23.5l64.7 64.7 41.2-41.1-64.7-64.7-41.2 41.1zm92.4-107.9l79.2 45.8 29.1-50.4-79.2-45.8-29.1 50.4zm61.3-128.2l88.4 23.7 15.1-56.2-88.4-23.7-15.1 56.2zm26.1-197.9v58.2h91.5V4466h-91.5zm-11-83.6l88.3-23.7-15.1-56.2-88.3 23.7 15.1 56.2zm-47.3-134l79.2-45.7-29.1-50.4-79.2 45.7 29.1 50.4zm-15.7-181.9l-41.1-41.2-64.7 64.7 41.1 41.2 64.7-64.7zm-223-56.8l50.4 29.1 45.7-79.2-50.4-29.1-45.7 79.2zm-134-47.3l56.2 15.1 23.7-88.3-56.2-15.1-23.7 88.3z"></path><g id="pencil_1_"><path id="middle" class="st3" d="M5817.8 4355.8h664.8V4536h-664.8v-180.2z"></path><path id="ends" class="st1" d="M5375.1 4358.3h-36.4v-2.7h-63.8c-10.1 0-19.6 4-26.6 11.4-6.8 7.1-10.6 16.5-10.6 26.4v104.8c0 10.2 3.9 19.8 11.1 27 7 7 16.3 10.9 26.1 10.9h63.8v-2.7h36.4v-175.1zm-91.3 43.4h45.3v88.4h-45.3v-88.4zM6824.7 4536H6769v-180.3h55.7l195.2 90.1-195.2 90.2zm-9.7-134v87.8l95.1-43.9-95.1-43.9z"></path><path id="body_2_" class="st2" d="M6769.1 4356v179.9h-286.6V4356h286.6zm-1393.7 179.9h451V4356h-451v179.9z"></path></g><path id="hand" class="st1" d="M6388.3 4221.9c-1.1 0-2.4-.1-3.9-.2-3.8-.3-8.4-.6-13.7.2h-38v-.5H5815.8v200.5h-3.2v17.3l-93.1 148.1-.3.6c-36.2 61.3-35.8 114.1 1.1 166l.4.5 154.3 193v629.1h45.8v-645.2l-163.6-204.6c-25.8-36.5-25.4-70 1.3-115.3l90.3-143.6 281-.4V4529.2c0 43.8-30.9 76.8-71.8 76.8h-124.6v53.3c117.5 0 213 95.6 213 213h45.8c0-69.2-26.9-134.2-75.8-183.1-14.7-14.7-30.8-27.4-48.1-37.9 28.7-2.4 54.8-15 74.4-36.1 5.4-5.8 10.1-12 14.2-18.7 18.5 19.9 45 32.4 74.2 32.4 31.6 0 59.9-14.5 78.5-37.3 18.6 22.7 46.9 37.3 78.5 37.3 20.5 0 39.6-6.1 55.6-16.6v93.8c0 6.6-4 35.2-55 124.5-28.4 49.6-57.2 93.3-57.5 93.7l-3.8 5.8v653.1h45.8v-639.3c8.9-13.7 31.8-49.5 55.1-90.2 54.8-95.9 61.2-130.1 61.2-147.5v-382.7c.2-56.1-45.3-101.6-101.2-101.6zm-415.5 192.3v7.5l-111.2.2v-154.6h111.2v146.9zm157 0v7.2l-111.2.2v-154.4h111.2v147zm157 0v113.2c0 30.7-24.9 55.6-55.6 55.6-30.7 0-55.6-24.9-55.6-55.6v-260.3h111.2v147.1zm157.1 22.6v90.6c0 30.7-24.9 55.6-55.6 55.6-30.7 0-55.6-24.9-55.6-55.6v-259.7h42.2l2.2-.4c.8-.1 2.8.1 4.3.2 2 .1 4.3.3 6.9.3 30.6 0 55.6 24.9 55.6 55.6v113.4z"></path></g><path id="gear_1_" class="st1" d="M8964.2 6547.7l-79.5-45.9c10.1-23.4 15.7-49.2 15.7-76.3 0-27-5.6-52.8-15.7-76.2l79.5-45.9-22.9-39.6-79.5 45.9c-31-41.4-78.2-69.9-132-76.3v-91.8H8684v91.8c-53.9 6.4-101 34.9-132 76.3l-79.5-45.9-22.9 39.6 79.5 45.9c-10.1 23.4-15.7 49.2-15.7 76.2 0 27.1 5.6 52.9 15.7 76.3l-79.5 45.9 22.9 39.6 79.5-45.9c31 41.3 78.2 69.9 132 76.3v91.8h45.8v-91.8c53.9-6.4 101-34.9 132-76.3l79.5 45.9 22.9-39.6zm-257.3 25.6c-81.5 0-147.8-66.3-147.8-147.8 0-81.5 66.3-147.7 147.8-147.7 81.5 0 147.7 66.3 147.7 147.7 0 81.5-66.3 147.8-147.7 147.8z"></path><path id="bulb" class="st1" d="M12037.7 2724.3l-45.4-8.2-4.5 25.2-47 18.5-62.8-24.8h-16.9l-62.8 24.8-62.7-24.8h-17l-62.8 24.8-46.8-18.5-4.6-25.3-45.4 8.2 88.8 492.9h-153.1v46.1h47.4v71.8h-47.4v46.1h47.4v71.8h-47.4v46.1h607.3v-46.1h-513.7v-71.8h513.7V3335h-513.7v-71.8h513.7v-46.1h-153l88.7-492.8zm-419.1 70.4l28.7 11.4h17l62.8-24.8 62.7 24.8h17l62.8-24.8 62.8 24.8h16.9l28.9-11.4-76.1 422.4h-207.3l-76.2-422.4zm-41.3 776.3h442.1v46.1h-442.1V3571zm244.2-1488.4h-46.1V1990h46.1v92.6zm-187.8 24.7l-23.9-89.4 44.6-11.9 23.9 89.4-44.6 11.9zm-130.4 60.5l-46.3-80.2 40-23.1 46.3 80.2-40 23.1zm-143.2-5.8l65.5 65.4-32.6 32.6-65.5-65.4 32.6-32.6zm-49.9 215.7l-80.2-46.3 23.1-40 80.2 46.3-23.1 40zm-49.4 135.1l-89.4-24 11.9-44.6 89.4 24-11.9 44.6zM11248 2656h-92.6v-46.1h92.6v46.1zm24.7 141.7l-89.4 24-11.9-44.6 89.4-24 11.9 44.6zm60.6 130.4l-80.2 46.3-23.1-40 80.2-46.3 23.1 40zm59.6 77.7l32.6 32.6-65.5 65.5-32.6-32.6 65.5-65.5zm811 0l65.4 65.5-32.6 32.6-65.4-65.5 32.6-32.6zm82.6-117.6l80.2 46.3-23.1 40-80.2-46.3 23.1-40zm49.5-135.1l89.5 24-11.9 44.6-89.4-24 11.8-44.6zm105.4-143.2v46.1h-92.6v-46.1h92.6zm-117.3-141.6l89.4-24 11.9 44.6-89.4 24-11.9-44.6zm-60.6-130.5l80.2-46.3 23.1 40-80.2 46.3-23.1-40zm-59.6-77.7l-32.6-32.6 65.5-65.5 32.6 32.6-65.5 65.5zm-104-195.5l40 23.1-46.3 80.2-40-23.1 46.3-80.2zm-136.7 42.7l-44.6-11.9 23.9-89.4 44.6 11.9-23.9 89.4z"></path><path id="chain" class="st1" d="M4935.8 4883.6l-42.8 17.8c-6-14.5-11.8-29.2-17.3-43.9l43.4-16.2c5.3 14.2 10.9 28.4 16.7 42.3zm159.8 274l-36.5 28.5c9.6 12.4 19.7 24.7 29.8 36.7l35.4-29.9c-9.8-11.5-19.4-23.4-28.7-35.3zm-226.7-490.7l-45.4 9.4c3.2 15.3 6.7 30.8 10.4 46l45-11.1c-3.5-14.7-6.9-29.6-10-44.3zm21.8 88.2l-44.5 12.8c4.3 15 9 30.2 13.9 45.1l44-14.5c-4.7-14.3-9.2-28.9-13.4-43.4zm104.6 251.1l-40.5 22.6c7.6 13.7 15.6 27.4 23.8 40.8l39.6-24.1c-7.9-12.9-15.6-26.1-22.9-39.3zm47.3 77.7l-38.6 25.6c8.7 13.1 17.7 26.1 26.8 38.9l37.6-27c-8.8-12.4-17.5-25-25.8-37.5zm-88.5-158.7l-42.1 19.4c6.6 14.2 13.5 28.5 20.6 42.5l41.3-21c-6.8-13.4-13.5-27.2-19.8-40.9zm-100.2-347.9l-45.9 5.9c2 15.5 4.3 31.2 6.9 46.7l45.7-7.6c-2.5-14.9-4.8-30-6.7-45zm-2.8-271.7l-46-5c-1.7 15.6-3.1 31.4-4.2 47l46.2 3.2c1.1-15 2.4-30.2 4-45.2zm61.6-264.5l-43.5-15.9c-5.4 14.7-10.5 29.8-15.3 44.7l44.1 14.1c4.6-14.3 9.6-28.7 14.7-42.9zm-48.2 174.8l-45.5-8.7c-2.9 15.4-5.6 31.1-7.9 46.6l45.8 6.8c2.3-14.9 4.8-30 7.6-44.7zm-20 213.4c0-11 .2-22.2.5-33.2l-46.3-1.3c-.3 11.4-.5 23-.5 34.5 0 4.2 0 8.5.1 12.7l46.3-.5c-.1-4-.1-8.1-.1-12.2zm1.4 57.6l-46.3 2.3c.8 15.6 1.9 31.5 3.3 47.1l46.1-4.1c-1.3-15-2.3-30.3-3.1-45.3zm39.2-359.4l-44.7-12.3c-4.2 15.1-8.1 30.5-11.6 45.8l45.1 10.5c3.4-14.7 7.2-29.5 11.2-44zm816.8 1491.8l42.7 18 18-42.7-42.7-18-18 42.7zm85.4 35.9l42.7 18 18-42.7-42.7-18-18 42.7zm-170.8-71.9l42.7 18 18-42.7-42.7-18-18 42.7zm256.1 107.9l42.7 18 18-42.7-42.7-18-18 42.7zm-752.5-432.9c10.6 11.6 21.5 23.1 32.5 34.3l33-32.5c-10.6-10.7-21.1-21.8-31.3-33l-34.2 31.2zm553.6-1943.2l-13.6-44.3c-15 4.6-30 9.5-44.7 14.7l15.3 43.7c14.1-4.9 28.6-9.7 43-14.1zm216.4-93l5.6 46c14.9-1.8 30.2-3.4 45.3-4.8l-4.1-46.1c-15.6 1.4-31.3 3-46.8 4.9zM5258 5387.4c12.3 9.8 24.9 19.5 37.6 28.8l27.4-37.3c-12.2-8.9-24.3-18.2-36.1-27.7l-28.9 36.2zm76.2 56c13 8.8 26.3 17.4 39.6 25.7l24.4-39.4c-12.8-7.9-25.6-16.2-38.1-24.7l-25.9 38.4zm-147.7-117.8c11.5 10.7 23.3 21.4 35.2 31.6l30.3-35c-11.4-9.9-22.8-20.1-33.8-30.4l-31.7 33.8zM5588.1 3345l-16.9-43.1c-14.6 5.7-29.2 11.8-43.6 18l18.5 42.4c13.8-6 27.9-11.8 42-17.3zm-150.8 2107.9l-22.8 40.3c13.6 7.7 27.6 15.3 41.5 22.4l10.6-20.6-9 21.3 30.8 13 18-42.7-29.9-12.6c-13.1-6.8-26.3-13.9-39.2-21.1zm93.9 94.4l42.7 18 18-42.7-42.7-18-18 42.7zm265.9-2310.6l8.8 45.5c14.8-2.8 29.9-5.5 44.8-7.8l-7.2-45.8c-15.5 2.5-31.1 5.2-46.4 8.1zm1251.6 379.7c-11.1-11.1-22.4-22.1-33.6-32.7l-31.9 33.6c10.9 10.4 21.9 21.1 32.8 31.9l32.7-32.8zm-293-234.3c-13.6-8.2-27.4-16.2-40.9-23.7l-22.4 40.6c13 7.2 26.2 14.8 39.3 22.7l24-39.6zm431.2 478.3l36.5-28.5-28.5-36.5-36.5 28.5 28.5 36.5zm171 219.1l36.5-28.5-28.5-36.5-36.5 28.5 28.5 36.5zm-772.2-780.9c-15-5.6-30.2-10.8-45.1-15.4l-13.7 44.2c14 4.4 28.4 9.3 42.5 14.6l16.3-43.4zm87.1 37.9c-14.3-7.1-28.8-13.8-43-20l-18.5 42.5c13.5 5.9 27.3 12.3 41 19.1l20.5-41.6zM8797.7 5921l36.5-28.5-28.5-36.5-36.5 28.5 28.5 36.5zm201.9 260.6l38.7-25.5c-8.9-13.5-18.5-26.7-28.5-39.2l-36.1 29c9.1 11.3 17.8 23.3 25.9 35.7zm41.6 77.8l42.7-18c-6.3-14.8-13.3-29.5-20.8-43.7l-40.9 21.8c6.8 13 13.2 26.4 19 39.9zm37.2 171.5l46.3-.9c-.3-16-1.4-32.3-3.4-48.5l-46 5.5c1.8 14.7 2.9 29.4 3.1 43.9zM6495.3 3270.3c-15.1-4.1-30.4-7.9-45.4-11.6l-10.9 45c14.7 3.5 29.6 7.3 44.3 11.3l12-44.7zm2473.6 2869.6l36.5-28.5-28.5-36.5-36.5 28.5 28.5 36.5zM7529 4298.5l36.5-28.5-28.5-36.5-36.5 28.5 28.5 36.5zm-2493.7-500.2l-38.8-25.2c-8.5 13.1-16.9 26.5-25 40l39.7 23.8c7.8-13 15.9-26 24.1-38.6zm240.6-270.6l-29.4-35.8c-12.1 10-24.2 20.3-35.9 30.8l30.8 34.6c11.3-10 22.9-20 34.5-29.6zM5087.5 3724l-36.9-28c-9.4 12.4-18.8 25.2-27.8 38.1l37.9 26.6c8.7-12.4 17.7-24.8 26.8-36.7zm120.5-135.8l-32.2-33.3c-11.3 10.9-22.5 22.1-33.3 33.4l33.4 32.1c10.5-10.9 21.3-21.7 32.1-32.2zm-62.8 65.6l-34.6-30.7c-10.4 11.7-20.7 23.8-30.6 35.9l35.8 29.4c9.5-11.8 19.4-23.4 29.4-34.6zm1258.9-405.5c-15.3-3.3-30.8-6.3-46-9.2l-8.4 45.5c14.8 2.8 29.9 5.8 44.8 8.9l9.6-45.2zm-1456.8 709l-42.1-19.4c-6.6 14.2-12.9 28.8-18.9 43.3l42.8 17.6c5.8-13.9 11.9-27.8 18.2-41.5zm21.8-44.8c6.3-12.2 12.8-24.3 19.3-36.2l-40.5-22.5c-6.8 12.3-13.5 24.9-20 37.5-.7 1.4-1.4 2.8-2.1 4.1l41.3 21c.6-1.3 1.3-2.6 2-3.9zm379.2-439.6l-26.5-38c-12.9 9-25.7 18.3-38.2 27.8l28 36.9c12-9.1 24.4-18.1 36.7-26.7zm870.4-253.6c-15.6-1.5-31.3-2.9-46.8-3.9l-3.2 46.2c15 1 30.3 2.3 45.5 3.8l4.5-46.1zm93.1 11.9c-15.5-2.4-31.1-4.7-46.5-6.6l-5.9 45.9c15 1.9 30.2 4.1 45.2 6.4l7.2-45.7zm-550.5 60.4l-10.4-45.1c-15.3 3.5-30.6 7.3-45.6 11.4l12 44.7c14.5-3.9 29.3-7.6 44-11zM5424.8 3424l-23.4-40c-13.5 7.9-27.1 16.2-40.3 24.6l24.9 39c12.8-8 25.8-16 38.8-23.6zm80.1-42.7l-20.2-41.7c-14.1 6.8-28.3 14-42.1 21.4l21.8 40.9c13.3-7.1 26.9-14 40.5-20.6zM9068 6343.6l45.2-9.9c-3.4-15.6-7.7-31.4-12.6-46.8l-44.1 14.1c4.5 14 8.3 28.3 11.5 42.6zm-1232 175l42.7 18 18-42.7-42.7-18-18 42.7zm170.7 72l42.7 18 18-42.7-42.7-18-18 42.7zm-85.3-36l42.7 18 18-42.7-42.7-18-18 42.7zm170.7 71.9l42.7 18 18-42.7-42.7-18-18 42.7zm170.7 72l42.7 18 18-42.7-42.7-18-18 42.7zm-85.3-36l42.7 18 18-42.7-42.7-18-18 42.7zm-426.9-179.9l42.7 18 18-42.7-42.7-18-18 42.7zM7622.5 4343l-28.5-36.5-36.5 28.5 28.5 36.5 36.5-28.5zm-42.6 2067.7l42.7 18 18-42.7-42.7-18-18 42.7zm-85.4-36l42.7 18 18-42.7-42.7-18-18 42.7zM7651 4379.5l-36.5 28.5 28.5 36.5 36.5-28.5-28.5-36.5zm-171-219l-36.5 28.5 28.5 36.5 36.5-28.5-28.5-36.5zm868.2 2574l42.7 18 18-42.7-42.7-18-18 42.7zm-682.9-287.8l42.7 18 18-42.7-42.7-18-18 42.7zm1328.4 223.1l33.7 31.7c11.4-12.1 21.9-25.1 31.3-38.6l-38-26.5c-8.1 11.7-17.2 22.9-27 33.4zm-67.1 53.9l24 39.6c14.2-8.6 27.8-18.1 40.5-28.2l-29-36.1c-11.1 8.8-23 17.1-35.5 24.7zm-79.3 35.6l14.1 44.1c15.7-5 31.1-10.9 45.7-17.4l-18.9-42.3c-13.1 5.9-26.8 11.2-40.9 15.6zm72.5-757.4l-36.5 28.5 28.5 36.5 36.5-28.5-28.5-36.5zm122.7 597.7l41.5 20.6c7.2-14.6 13.6-29.9 19-45.5l-43.8-15c-4.8 13.7-10.4 27.1-16.7 39.9zm28.1-81.8l45.3 9.4c3.3-15.8 5.7-32.1 7.2-48.4l-46.1-4.1c-1.4 14.6-3.5 29.1-6.4 43.1zm-322-734.8l-36.5 28.5 28.5 36.5 36.5-28.5-28.5-36.5zm-173.5 1030.9c15.8 3.1 31.7 5.6 47.2 7.6l5.8-46c-14.5-1.8-29.4-4.2-44.2-7.1l-8.8 45.5zm97.5-34.3l-2.5 46.2c11.3.6 22.6.9 33.7.9 4.8 0 9.7-.1 14.4-.2l-1.1-46.3c-14.4.4-29.5.2-44.5-.6zm218.7-814.2l-28.5-36.5-36.5 28.5 28.5 36.5 36.5-28.5zm-408.5 825c15.3 4.8 30.7 9.2 45.7 13.1l11.5-44.9c-14.3-3.7-28.8-7.8-43.3-12.4l-13.9 44.2zm278.5-13.1l5.1 46c16.2-1.8 32.4-4.3 47.9-7.6l-9.4-45.3c-14.1 3-28.8 5.3-43.6 6.9zm-309.8-49.5l-18 42.7 42.7 18 18-42.7-42.7-18zM6726.3 6051l42.7 18 18-42.7-42.7-18-18 42.7zm-85.4-36l42.7 18 18-42.7-42.7-18-18 42.7zm-256.1-107.9l42.7 18 18-42.7-42.7-18-18 42.7zm85.4 35.9l42.7 18 18-42.7-42.7-18-18 42.7zm85.3 36l42.7 18 18-42.7-42.7-18-18 42.7zM5958 5727.2l42.7 18 18-42.7-42.7-18-18 42.7zm837.5-2319.9L6770 3446c12.5 8.2 25.1 16.8 37.6 25.7l26.8-37.8c-12.9-9.2-25.9-18.1-38.9-26.6zm-581.4 2427.8l42.7 18 18-42.7-42.7-18-18 42.7zm-170.7-71.9l42.7 18 18-42.7-42.7-18-18 42.7zm34.2-2505.2c15.1.1 30.4.5 45.6 1.1l1.8-46.3c-15.6-.6-31.5-1-47-1.1l-.4 46.3zm-93.7-44.2l2.6 46.2c15-.8 30.4-1.4 45.5-1.8l-1.1-46.3c-15.6.5-31.5 1.1-47 1.9zm144.8 2585.3l42.7 18 18-42.7-42.7-18-18 42.7zm170.8 72l42.7 18 18-42.7-42.7-18-18 42.7zm512.1 215.8l42.7 18 18-42.7-42.7-18-18 42.7zm326.3-2364.5l-36.5 28.5 28.5 36.5 36.5-28.5-28.5-36.5zm15.2 2508.4l42.7 18 18-42.7-42.7-18-18 42.7zm155.8-2289.3l-36.5 28.5 28.5 36.5 36.5-28.5-28.5-36.5zm-28.5-36.5l-28.5-36.5-36.5 28.5 28.5 36.5 36.5-28.5zm-41.9 2361.8l42.7 18 18-42.7-42.7-18-18 42.7zm-366.1-2805l-28 36.9c11.9 9.1 24 18.5 35.9 28.1l29.1-36c-12.3-10-24.7-19.7-37-29zm579.1 662.2l-28.5-36.5-36.5 28.5 28.5 36.5 36.5-28.5zm-127.7 2178.8l42.7 18 18-42.7-42.7-18-18 42.7zM6915.4 3556c11.4 9.8 22.9 19.9 34.3 30.2l31.1-34.4c-11.7-10.5-23.5-21-35.2-31l-30.2 35.2zm493.8 2782.7l42.7 18 18-42.7-42.7-18-18 42.7zm-426.8-179.8l42.7 18 18-42.7-42.7-18-18 42.7zm-85.4-36l42.7 18 18-42.7-42.7-18-18 42.7zm212.4-2437l-28.5-36.5-36.5 28.5 28.5 36.5 36.5-28.5zm-41.7 2509l42.7 18 18-42.7-42.7-18-18 42.7z"></path></g></svg>