<?xml version="1.0" encoding="UTF-8"?>
<svg width="63px" height="62px" viewBox="0 0 63 62" version="1.1" xmlns="http://www.w3.org/2000/svg" xmlns:xlink="http://www.w3.org/1999/xlink">
    <!-- Generator: Sketch 42 (36781) - http://www.bohemiancoding.com/sketch -->
    <title>gaming</title>
    <desc>Created with Sketch.</desc>
    <defs>
        <circle id="path-1" cx="31" cy="38" r="31"></circle>
        <rect id="path-3" x="33" y="0" width="46" height="68"></rect>
    </defs>
    <g id="Page-1" stroke="none" stroke-width="1" fill="none" fill-rule="evenodd">
        <g id="solutions_landing" transform="translate(-158.000000, -944.000000)">
            <g id="card" transform="translate(138.000000, 901.000000)">
                <g id="gaming" transform="translate(20.000000, 36.000000)">
                    <mask id="mask-2" fill="white">
                        <use xlink:href="#path-1"></use>
                    </mask>
                    <use id="Oval" fill="#445965" xlink:href="#path-1"></use>
                    <g mask="url(#mask-2)">
                        <g transform="translate(0.000000, 21.000000)">
                            <g id="Group-81" stroke-width="1" fill="none" transform="translate(0.768000, 0.157309)">
                                <path d="M57.8092237,11.2765667 C56.8712397,5.25788852 51.5890381,0.648918167 45.2132045,0.648918167 C38.1746381,0.648918167 32.4680909,6.26678124 32.4680909,13.1959629 C32.4680909,15.9282799 33.3561037,18.4557537 34.8626125,20.516282 L47.3603277,38.561026 C48.7546061,40.758654 51.2326861,42.2207823 54.0581069,42.2207823 C58.4178893,42.2207823 61.9519181,38.741675 61.9519181,34.449647 C61.9519181,33.8601182 61.8831053,33.2867187 61.7569485,32.7350939 L57.8092237,11.2765667 Z" id="Fill-1" fill="#3262B5"></path>
                                <path d="M0.785184038,32.4166822 C0.818103738,32.080753 0.871990612,31.7508546 0.945540627,31.4282715 C0.976296508,31.2119901 1.01563053,30.9984138 1.06319324,30.7878869 C1.09478318,30.5648633 1.13534009,30.3446669 1.18449368,30.1276619 C1.21603888,29.9079065 1.25614674,29.6908615 1.3044743,29.4768643 C1.33565509,29.2607357 1.37498432,29.0471897 1.42214602,28.8365372 C1.45420762,28.6134912 1.49480985,28.3931482 1.54361641,28.175839 C1.5755293,27.9566151 1.61556315,27.739971 1.66340837,27.5262117 C1.69549663,27.3065047 1.73561335,27.0893521 1.78345636,26.8750511 C1.81509403,26.659437 1.85434646,26.4462485 1.90093655,26.2357585 C1.93352349,26.0126384 1.97414159,25.7920726 2.02249317,25.5743543 C2.05491699,25.3550521 2.09498622,25.1381901 2.14242603,24.9240388 C2.17437801,24.7087064 2.21359402,24.4956947 2.25982132,24.2852524 C2.29275503,24.0622048 2.33337006,23.8416072 2.38139374,23.6237282 C2.41422203,23.4038947 2.45440605,23.1864176 2.50169178,22.9715467 C2.53449404,22.7528838 2.5744723,22.5365215 2.62138333,22.3226991 C2.65375779,22.1073066 2.69299856,21.8941169 2.73887959,21.6833524 C2.77225699,21.4603539 2.8128947,21.2396808 2.8605487,21.0215734 C2.89364697,20.8028098 2.93364004,20.5862614 2.98030333,20.3721495 C3.01295713,20.1567333 3.052206,19.9434396 3.09784128,19.7324739 C3.13152377,19.5094046 3.17218644,19.2885784 3.21960361,19.0702174 C3.25305446,18.850989 3.29316155,18.6339062 3.33971584,18.4191746 C3.37254362,18.2046482 3.41166323,17.992151 3.45688374,17.7818709 C3.49084966,17.558727 3.53153778,17.337747 3.57873867,17.1191369 C3.61234792,16.9005761 3.65232726,16.6840719 3.69848447,16.4698135 C3.73227981,16.250366 3.77241664,16.0329687 3.81870524,15.8178086 C3.85182117,15.6035022 3.89091209,15.3911295 3.93580549,15.1808602 C3.97016172,14.9573403 4.0109402,14.7358948 4.05794992,14.5167116 C4.09190402,14.2980285 4.13193287,14.081313 4.17786161,13.8667374 C4.21114056,13.6528335 4.25016397,13.4407912 4.29477194,13.230768 C4.32933024,13.0073219 4.37008364,12.7858809 4.41685422,12.5666202 C4.45105984,12.3475826 4.49115101,12.1304559 4.53696379,11.9154013 C4.57044385,11.7015548 4.60947076,11.4895105 4.65389533,11.2794151 C5.06886535,8.61407973 6.33591526,6.22502052 8.17267046,4.39011962 C10.4840123,2.08063472 13.6976798,0.64883752 17.2510413,0.64883752 L45.1177677,0.64883752 C52.1563341,0.64883752 57.8620621,6.26670059 57.8620621,13.1958823 C57.8620621,20.1250639 52.1563341,25.7421205 45.1177677,25.7421205 L23.9890101,25.7421205 C23.932053,25.823855 23.8740176,25.9048043 23.8149242,25.9849485 C23.6939414,26.1714607 23.5674034,26.3541428 23.4355398,26.5327688 C23.3153815,26.7180804 23.1896687,26.8995628 23.0586326,27.0769887 C22.9381575,27.26304 22.8120125,27.4451864 22.6804374,27.6231922 C22.5596051,27.8099626 22.4329847,27.9927494 22.3008251,28.1713077 C22.1809139,28.356725 22.0552223,28.538166 21.9240002,28.7153849 C21.8037536,28.901596 21.6776002,29.0837484 21.5457996,29.2615863 C21.4257537,29.4476675 21.2997295,29.6296438 21.1679931,29.807253 C21.0473447,29.9944856 20.920561,30.177509 20.7879206,30.3560491 C20.667874,30.5423912 20.5416641,30.7245048 20.4095732,30.9021121 C20.2902746,31.0874783 20.1647912,31.2686055 20.0334085,31.4452126 C19.913475,31.6319286 19.7871781,31.8142897 19.6548179,31.9920004 C19.5350903,32.1785755 19.4089164,32.3607421 19.2766043,32.5381967 C19.1570815,32.7246685 19.0310248,32.9066755 18.8987509,33.083906 C18.7791099,33.2708155 18.6528067,33.4531768 18.5201694,33.6306669 C18.4000402,33.81854 18.2730776,34.0017516 18.1396248,34.1799636 C18.0209617,34.3655696 17.8955237,34.5465552 17.7636524,34.722584 C17.6444701,34.9094477 17.5183157,35.0915648 17.3855481,35.2685817 C17.2664414,35.4555913 17.1402407,35.6377764 17.0073174,35.8147714 C16.8883262,36.0018618 16.7621203,36.1840504 16.6290834,36.3609597 C16.5098805,36.548655 16.383297,36.7313411 16.2497329,36.9086242 C16.1312968,37.0952888 16.005438,37.2769211 15.8725633,37.4531203 C15.6934623,37.7359894 15.4970297,38.0071258 15.2847274,38.2650891 C13.9303339,40.6265868 11.3574342,42.220863 8.40613888,42.220863 C4.04635648,42.220863 0.51232768,38.7417557 0.51232768,34.4497277 C0.51232768,33.7462979 0.607253967,33.0647037 0.785184038,32.4166822 Z" id="Combined-Shape" fill="#90CAF9"></path>
                                <polygon id="Fill-77" fill="#36464E" points="25.6044237 16.1885274 21.0603213 16.1885274 21.0603213 20.662011 18.0309197 20.662011 18.0309197 16.1885274 13.4876365 16.1885274 13.4876365 13.2062051 18.0309197 13.2062051 18.0309197 8.73272151 21.0603213 8.73272151 21.0603213 13.2062051 25.6044237 13.2062051"></polygon>
                                <path d="M45.2535091,12.7493404 L43.2743219,13.8550094 L43.2743219,14.6977695 L45.2535091,16.6453921 L48.8817459,16.6453921 L48.8817459,12.7493404 L45.2535091,12.7493404 Z M40.3063603,17.6196067 L40.3063603,21.1914579 L44.2639155,21.1914579 L44.2639155,17.6196067 L42.2855475,15.6711776 L40.3063603,17.6196067 Z M39.3167667,12.1872315 L35.6893491,12.7493404 L35.6893491,16.6453921 L39.3167667,16.6453921 L41.2959539,14.6977695 L41.2959539,13.8550094 L39.3167667,12.1872315 Z M44.2639155,11.7751258 L44.2639155,8.20408108 L40.3063603,8.20408108 L40.3063603,11.7751258 L42.2855475,13.7235549 L44.2639155,11.7751258 Z" id="Fill-79" fill="#36464E"></path>
                            </g>
                            <polygon id="Fill-82" fill="#FFFFFF" points="26.3724237 15.5031569 21.8283213 15.5031569 21.8283213 19.9766404 18.7989197 19.9766404 18.7989197 15.5031569 14.2556365 15.5031569 14.2556365 12.5208345 18.7989197 12.5208345 18.7989197 8.04735094 21.8283213 8.04735094 21.8283213 12.5208345 26.3724237 12.5208345"></polygon>
                            <path d="M46.0215091,12.0639698 L44.0423219,14.0123989 L46.0215091,15.9600216 L49.6497459,15.9600216 L49.6497459,12.0639698 L46.0215091,12.0639698 Z M41.0743603,16.9342361 L41.0743603,20.5060873 L45.0319155,20.5060873 L45.0319155,16.9342361 L43.0535475,14.985807 L41.0743603,16.9342361 Z M40.0847667,12.0639698 L36.4573491,12.0639698 L36.4573491,15.9600216 L40.0847667,15.9600216 L42.0639539,14.0123989 L40.0847667,12.0639698 Z M45.0319155,11.0897553 L45.0319155,7.51871051 L41.0743603,7.51871051 L41.0743603,11.0897553 L43.0535475,13.0381844 L45.0319155,11.0897553 Z" id="Fill-84" fill="#FFFFFF"></path>
                            <path d="M60.0056627,19.1987204 L58.5769779,11.4340369 C58.2468403,9.3130234 57.3752115,7.36701369 56.1079091,5.73633337 C56.0194355,5.66294469 55.9309619,5.59036248 55.8400307,5.51939321 C57.5857459,7.66621369 58.6302259,10.3896595 58.6302259,13.3526266 C58.6302259,20.2818083 52.9244979,25.8996714 45.8859315,25.8996714 L39.2495923,25.8996714 L40.6119219,27.8658428 L47.8831411,27.8658428 C53.5462707,27.8658428 58.3459635,24.2286676 60.0056627,19.1987204" id="Fill-86" fill="#36464E"></path>
                        </g>
                    </g>
                    <mask id="mask-4" fill="white">
                        <use xlink:href="#path-3"></use>
                    </mask>
                    <g id="Rectangle-4"></g>
                    <g mask="url(#mask-4)">
                        <g transform="translate(0.000000, 21.000000)">
                            <g id="Group-81" stroke-width="1" fill="none" transform="translate(0.768000, 0.157309)">
                                <path d="M57.8092237,11.2765667 C56.8712397,5.25788852 51.5890381,0.648918167 45.2132045,0.648918167 C38.1746381,0.648918167 32.4680909,6.26678124 32.4680909,13.1959629 C32.4680909,15.9282799 33.3561037,18.4557537 34.8626125,20.516282 L47.3603277,38.561026 C48.7546061,40.758654 51.2326861,42.2207823 54.0581069,42.2207823 C58.4178893,42.2207823 61.9519181,38.741675 61.9519181,34.449647 C61.9519181,33.8601182 61.8831053,33.2867187 61.7569485,32.7350939 L57.8092237,11.2765667 Z" id="Fill-1" fill="#3262B5"></path>
                                <path d="M0.785184038,32.4166822 C0.818103738,32.080753 0.871990612,31.7508546 0.945540627,31.4282715 C0.976296508,31.2119901 1.01563053,30.9984138 1.06319324,30.7878869 C1.09478318,30.5648633 1.13534009,30.3446669 1.18449368,30.1276619 C1.21603888,29.9079065 1.25614674,29.6908615 1.3044743,29.4768643 C1.33565509,29.2607357 1.37498432,29.0471897 1.42214602,28.8365372 C1.45420762,28.6134912 1.49480985,28.3931482 1.54361641,28.175839 C1.5755293,27.9566151 1.61556315,27.739971 1.66340837,27.5262117 C1.69549663,27.3065047 1.73561335,27.0893521 1.78345636,26.8750511 C1.81509403,26.659437 1.85434646,26.4462485 1.90093655,26.2357585 C1.93352349,26.0126384 1.97414159,25.7920726 2.02249317,25.5743543 C2.05491699,25.3550521 2.09498622,25.1381901 2.14242603,24.9240388 C2.17437801,24.7087064 2.21359402,24.4956947 2.25982132,24.2852524 C2.29275503,24.0622048 2.33337006,23.8416072 2.38139374,23.6237282 C2.41422203,23.4038947 2.45440605,23.1864176 2.50169178,22.9715467 C2.53449404,22.7528838 2.5744723,22.5365215 2.62138333,22.3226991 C2.65375779,22.1073066 2.69299856,21.8941169 2.73887959,21.6833524 C2.77225699,21.4603539 2.8128947,21.2396808 2.8605487,21.0215734 C2.89364697,20.8028098 2.93364004,20.5862614 2.98030333,20.3721495 C3.01295713,20.1567333 3.052206,19.9434396 3.09784128,19.7324739 C3.13152377,19.5094046 3.17218644,19.2885784 3.21960361,19.0702174 C3.25305446,18.850989 3.29316155,18.6339062 3.33971584,18.4191746 C3.37254362,18.2046482 3.41166323,17.992151 3.45688374,17.7818709 C3.49084966,17.558727 3.53153778,17.337747 3.57873867,17.1191369 C3.61234792,16.9005761 3.65232726,16.6840719 3.69848447,16.4698135 C3.73227981,16.250366 3.77241664,16.0329687 3.81870524,15.8178086 C3.85182117,15.6035022 3.89091209,15.3911295 3.93580549,15.1808602 C3.97016172,14.9573403 4.0109402,14.7358948 4.05794992,14.5167116 C4.09190402,14.2980285 4.13193287,14.081313 4.17786161,13.8667374 C4.21114056,13.6528335 4.25016397,13.4407912 4.29477194,13.230768 C4.32933024,13.0073219 4.37008364,12.7858809 4.41685422,12.5666202 C4.45105984,12.3475826 4.49115101,12.1304559 4.53696379,11.9154013 C4.57044385,11.7015548 4.60947076,11.4895105 4.65389533,11.2794151 C5.06886535,8.61407973 6.33591526,6.22502052 8.17267046,4.39011962 C10.4840123,2.08063472 13.6976798,0.64883752 17.2510413,0.64883752 L45.1177677,0.64883752 C52.1563341,0.64883752 57.8620621,6.26670059 57.8620621,13.1958823 C57.8620621,20.1250639 52.1563341,25.7421205 45.1177677,25.7421205 L23.9890101,25.7421205 C23.932053,25.823855 23.8740176,25.9048043 23.8149242,25.9849485 C23.6939414,26.1714607 23.5674034,26.3541428 23.4355398,26.5327688 C23.3153815,26.7180804 23.1896687,26.8995628 23.0586326,27.0769887 C22.9381575,27.26304 22.8120125,27.4451864 22.6804374,27.6231922 C22.5596051,27.8099626 22.4329847,27.9927494 22.3008251,28.1713077 C22.1809139,28.356725 22.0552223,28.538166 21.9240002,28.7153849 C21.8037536,28.901596 21.6776002,29.0837484 21.5457996,29.2615863 C21.4257537,29.4476675 21.2997295,29.6296438 21.1679931,29.807253 C21.0473447,29.9944856 20.920561,30.177509 20.7879206,30.3560491 C20.667874,30.5423912 20.5416641,30.7245048 20.4095732,30.9021121 C20.2902746,31.0874783 20.1647912,31.2686055 20.0334085,31.4452126 C19.913475,31.6319286 19.7871781,31.8142897 19.6548179,31.9920004 C19.5350903,32.1785755 19.4089164,32.3607421 19.2766043,32.5381967 C19.1570815,32.7246685 19.0310248,32.9066755 18.8987509,33.083906 C18.7791099,33.2708155 18.6528067,33.4531768 18.5201694,33.6306669 C18.4000402,33.81854 18.2730776,34.0017516 18.1396248,34.1799636 C18.0209617,34.3655696 17.8955237,34.5465552 17.7636524,34.722584 C17.6444701,34.9094477 17.5183157,35.0915648 17.3855481,35.2685817 C17.2664414,35.4555913 17.1402407,35.6377764 17.0073174,35.8147714 C16.8883262,36.0018618 16.7621203,36.1840504 16.6290834,36.3609597 C16.5098805,36.548655 16.383297,36.7313411 16.2497329,36.9086242 C16.1312968,37.0952888 16.005438,37.2769211 15.8725633,37.4531203 C15.6934623,37.7359894 15.4970297,38.0071258 15.2847274,38.2650891 C13.9303339,40.6265868 11.3574342,42.220863 8.40613888,42.220863 C4.04635648,42.220863 0.51232768,38.7417557 0.51232768,34.4497277 C0.51232768,33.7462979 0.607253967,33.0647037 0.785184038,32.4166822 Z" id="Combined-Shape" fill="#90CAF9"></path>
                                <polygon id="Fill-77" fill="#36464E" points="25.6044237 16.1885274 21.0603213 16.1885274 21.0603213 20.662011 18.0309197 20.662011 18.0309197 16.1885274 13.4876365 16.1885274 13.4876365 13.2062051 18.0309197 13.2062051 18.0309197 8.73272151 21.0603213 8.73272151 21.0603213 13.2062051 25.6044237 13.2062051"></polygon>
                                <path d="M45.2535091,12.7493404 L43.2743219,13.8550094 L43.2743219,14.6977695 L45.2535091,16.6453921 L48.8817459,16.6453921 L48.8817459,12.7493404 L45.2535091,12.7493404 Z M40.3063603,17.6196067 L40.3063603,21.1914579 L44.2639155,21.1914579 L44.2639155,17.6196067 L42.2855475,15.6711776 L40.3063603,17.6196067 Z M39.3167667,12.1872315 L35.6893491,12.7493404 L35.6893491,16.6453921 L39.3167667,16.6453921 L41.2959539,14.6977695 L41.2959539,13.8550094 L39.3167667,12.1872315 Z M44.2639155,11.7751258 L44.2639155,8.20408108 L40.3063603,8.20408108 L40.3063603,11.7751258 L42.2855475,13.7235549 L44.2639155,11.7751258 Z" id="Fill-79" fill="#36464E"></path>
                            </g>
                            <polygon id="Fill-82" fill="#FFFFFF" points="26.3724237 15.5031569 21.8283213 15.5031569 21.8283213 19.9766404 18.7989197 19.9766404 18.7989197 15.5031569 14.2556365 15.5031569 14.2556365 12.5208345 18.7989197 12.5208345 18.7989197 8.04735094 21.8283213 8.04735094 21.8283213 12.5208345 26.3724237 12.5208345"></polygon>
                            <path d="M46.0215091,12.0639698 L44.0423219,14.0123989 L46.0215091,15.9600216 L49.6497459,15.9600216 L49.6497459,12.0639698 L46.0215091,12.0639698 Z M41.0743603,16.9342361 L41.0743603,20.5060873 L45.0319155,20.5060873 L45.0319155,16.9342361 L43.0535475,14.985807 L41.0743603,16.9342361 Z M40.0847667,12.0639698 L36.4573491,12.0639698 L36.4573491,15.9600216 L40.0847667,15.9600216 L42.0639539,14.0123989 L40.0847667,12.0639698 Z M45.0319155,11.0897553 L45.0319155,7.51871051 L41.0743603,7.51871051 L41.0743603,11.0897553 L43.0535475,13.0381844 L45.0319155,11.0897553 Z" id="Fill-84" fill="#FFFFFF"></path>
                            <path d="M60.0056627,19.1987204 L58.5769779,11.4340369 C58.2468403,9.3130234 57.3752115,7.36701369 56.1079091,5.73633337 C56.0194355,5.66294469 55.9309619,5.59036248 55.8400307,5.51939321 C57.5857459,7.66621369 58.6302259,10.3896595 58.6302259,13.3526266 C58.6302259,20.2818083 52.9244979,25.8996714 45.8859315,25.8996714 L39.2495923,25.8996714 L40.6119219,27.8658428 L47.8831411,27.8658428 C53.5462707,27.8658428 58.3459635,24.2286676 60.0056627,19.1987204" id="Fill-86" fill="#36464E"></path>
                        </g>
                    </g>
                </g>
            </g>
        </g>
    </g>
</svg>