<?xml version="1.0" encoding="UTF-8"?>
<svg width="66px" height="68px" viewBox="0 0 66 68" version="1.1" xmlns="http://www.w3.org/2000/svg" xmlns:xlink="http://www.w3.org/1999/xlink">
    <!-- Generator: Sketch 42 (36781) - http://www.bohemiancoding.com/sketch -->
    <title>bigdata</title>
    <desc>Created with Sketch.</desc>
    <defs>
        <circle id="path-1" cx="31" cy="31" r="31"></circle>
    </defs>
    <g id="Page-1" stroke="none" stroke-width="1" fill="none" fill-rule="evenodd">
        <g id="solutions_landing" transform="translate(-748.000000, -566.000000)">
            <g id="card" transform="translate(728.000000, 523.000000)">
                <g id="bigdata" transform="translate(20.000000, 43.000000)">
                    <mask id="mask-2" fill="white">
                        <use xlink:href="#path-1"></use>
                    </mask>
                    <use id="Oval" fill="#445965" xlink:href="#path-1"></use>
                    <rect id="Rectangle-30" fill="#90CAF9" mask="url(#mask-2)" x="-1" y="23.4254383" width="3" height="111.505859"></rect>
                    <rect id="Rectangle-30" fill="#90CAF9" mask="url(#mask-2)" x="14" y="25.4254383" width="3" height="59"></rect>
                    <rect id="Rectangle-30" fill="#90CAF9" mask="url(#mask-2)" x="19" y="17.4254383" width="3" height="81"></rect>
                    <rect id="Rectangle-30" fill="#90CAF9" mask="url(#mask-2)" x="4" y="33.4254383" width="3" height="59"></rect>
                    <rect id="Rectangle-30" fill="#90CAF9" mask="url(#mask-2)" x="9" y="25.4254383" width="3" height="81"></rect>
                    <rect id="Rectangle-30" fill="#90CAF9" mask="url(#mask-2)" x="24" y="22.4254383" width="3" height="83.2332417"></rect>
                    <rect id="Rectangle-30" fill="#90CAF9" mask="url(#mask-2)" x="29" y="13.4254383" width="3" height="111.505859"></rect>
                    <rect id="Rectangle-30" fill="#90CAF9" mask="url(#mask-2)" x="44" y="15.4254383" width="3" height="77.7049469"></rect>
                    <rect id="Rectangle-30" fill="#90CAF9" mask="url(#mask-2)" x="49" y="7.42543835" width="3" height="81"></rect>
                    <rect id="Rectangle-30" fill="#90CAF9" mask="url(#mask-2)" x="34" y="25.9617023" width="3" height="77.7049469"></rect>
                    <rect id="Rectangle-30" fill="#90CAF9" mask="url(#mask-2)" x="39" y="15.4254383" width="3" height="81"></rect>
                    <rect id="Rectangle-30" fill="#90CAF9" mask="url(#mask-2)" x="54" y="12.4254383" width="3" height="83.2332417"></rect>
                    <rect id="Rectangle-30" fill="#90CAF9" mask="url(#mask-2)" x="59" y="3.42543835" width="3" height="111.505859"></rect>
                    <rect id="Rectangle-30" fill="#90CAF9" mask="url(#mask-2)" x="64" y="13.4254383" width="3" height="111.505859"></rect>
                    <circle id="Oval-4" stroke="#979797" stroke-width="0.7" fill="#36464E" mask="url(#mask-2)" cx="29.5" cy="30.5" r="16.5"></circle>
                    <rect id="Rectangle-12" fill="#90CAF9" mask="url(#mask-2)" x="16" y="27" width="5" height="19"></rect>
                    <rect id="Rectangle-12" fill="#90CAF9" mask="url(#mask-2)" x="23" y="30" width="5" height="19"></rect>
                    <rect id="Rectangle-12" fill="#90CAF9" mask="url(#mask-2)" x="30" y="22" width="5" height="25"></rect>
                    <rect id="Rectangle-12" fill="#90CAF9" mask="url(#mask-2)" x="37" y="25" width="5" height="21"></rect>
                    <path d="M30.4401459,47.591274 C22.6257941,47.591274 16.2890179,41.2549167 16.2890179,33.4401459 C16.2890179,25.6257941 22.6257941,19.2894368 30.4401459,19.2894368 C38.2544978,19.2894368 44.591274,25.6257941 44.591274,33.4401459 C44.591274,41.2549167 38.2544978,47.591274 30.4401459,47.591274 L30.4401459,47.591274 Z M49.3080374,47.591274 L46.807847,47.591274 L45.9431699,46.7265969 C49.0248389,43.1572902 50.8802919,38.5188672 50.8802919,33.4401459 C50.8802919,22.1511662 41.7295447,13 30.4401459,13 C19.1507472,13 10,22.1511662 10,33.4401459 C10,44.7295447 19.1507472,53.8807108 30.4401459,53.8807108 C35.5188672,53.8807108 40.1572902,52.0252578 43.726178,48.9590893 L44.591274,49.8237664 L44.591274,52.3084563 L60.3142376,68 L65,63.3146566 L49.3080374,47.591274 Z" id="Fill-1" fill="#36464E" opacity="0.196671196"></path>
                    <g id="Page-1" transform="translate(11.000000, 9.000000)">
                        <path d="M20.5261654,34.5455 C12.8125188,34.5455 6.55740602,28.2908008 6.55740602,20.5767406 C6.55740602,12.863094 12.8125188,6.60839474 20.5261654,6.60839474 C28.239812,6.60839474 34.4949248,12.863094 34.4949248,20.5767406 C34.4949248,28.2908008 28.239812,34.5455 20.5261654,34.5455 L20.5261654,34.5455 Z M39.1509023,34.5455 L36.6829323,34.5455 L35.8293985,33.6919662 C38.8713534,30.1686579 40.7028947,25.5900113 40.7028947,20.5767406 C40.7028947,9.43324436 31.6700752,0.400011278 20.5261654,0.400011278 C9.38225564,0.400011278 0.34943609,9.43324436 0.34943609,20.5767406 C0.34943609,31.7206504 9.38225564,40.7538835 20.5261654,40.7538835 C25.5394361,40.7538835 30.1180827,38.9223421 33.6409774,35.895688 L34.4949248,36.7492218 L34.4949248,39.201891 L50.0152632,54.6912143 L54.6406391,50.0662519 L39.1509023,34.5455 Z" id="Fill-1" fill="#FFFFFF"></path>
                        <polygon id="Fill-3" fill="#414141" points="54.7419962 50.1064887 50.2142143 54.6342707 34.4531992 39.6767519 39.3606053 34.7250977"></polygon>
                    </g>
                </g>
            </g>
        </g>
    </g>
</svg>