<?xml version="1.0" encoding="UTF-8"?>
<svg width="62px" height="62px" viewBox="0 0 62 62" version="1.1" xmlns="http://www.w3.org/2000/svg" xmlns:xlink="http://www.w3.org/1999/xlink">
    <!-- Generator: Sketch 42 (36781) - http://www.bohemiancoding.com/sketch -->
    <title>web</title>
    <desc>Created with Sketch.</desc>
    <defs>
        <circle id="path-1" cx="31" cy="31" r="31"></circle>
        <polygon id="path-3" points="4.82469967e-20 0.314586479 4.82469967e-20 52.1365233 44.463777 52.1365233 88.927554 52.1365233 88.927554 0.314586479 0 0.314586479"></polygon>
        <polygon id="path-5" points="2.67591111e-15 8.14637594 2.67591111e-15 0.0335794557 88.927643 0.0335794557 88.927643 8.14637594 0 8.14637594"></polygon>
        <polygon id="path-7" points="0 59.1724796 88.92791 59.1724796 88.92791 0.88384662 0 0.88384662"></polygon>
        <rect id="path-9" x="-2" y="-3" width="39" height="45"></rect>
        <polygon id="path-11" points="4.82469967e-20 0.314586479 4.82469967e-20 52.1365233 44.463777 52.1365233 88.927554 52.1365233 88.927554 0.314586479 0 0.314586479"></polygon>
        <polygon id="path-13" points="2.67591111e-15 8.14637594 2.67591111e-15 0.0335794557 88.927643 0.0335794557 88.927643 8.14637594 0 8.14637594"></polygon>
        <polygon id="path-15" points="0 59.1724796 88.92791 59.1724796 88.92791 0.88384662 0 0.88384662"></polygon>
    </defs>
    <g id="Page-1" stroke="none" stroke-width="1" fill="none" fill-rule="evenodd">
        <g id="solutions_landing" transform="translate(-1043.000000, -944.000000)">
            <g id="card" transform="translate(1023.000000, 901.000000)">
                <g id="web" transform="translate(20.000000, 43.000000)">
                    <mask id="mask-2" fill="white">
                        <use xlink:href="#path-1"></use>
                    </mask>
                    <use id="Oval" fill="#445965" xlink:href="#path-1"></use>
                    <g mask="url(#mask-2)">
                        <g transform="translate(3.000000, 7.000000)">
                            <g id="Group-3" stroke="none" stroke-width="1" fill="none" fill-rule="evenodd" transform="translate(0.000000, 7.035956)">
                                <mask id="mask-4" fill="white">
                                    <use xlink:href="#path-3"></use>
                                </mask>
                                <g id="Clip-2"></g>
                                <path d="M88.592024,52.1365233 L0.336064,52.1365233 C0.150054,52.1365233 -0.000356000002,51.9871831 -0.000356000002,51.8033797 L-0.000356000002,1.64804434 C-0.000356000002,0.911063652 0.601284,0.314586479 1.343544,0.314586479 L87.584544,0.314586479 C88.326804,0.314586479 88.927554,0.911063652 88.927554,1.64804434 L88.927554,51.8033797 C88.927554,51.9871831 88.777144,52.1365233 88.592024,52.1365233" id="Fill-1" fill="#90CAF9" mask="url(#mask-4)"></path>
                            </g>
                            <g id="Group-6" stroke="none" stroke-width="1" fill="none" fill-rule="evenodd" transform="translate(0.000000, 0.850267)">
                                <mask id="mask-6" fill="white">
                                    <use xlink:href="#path-5"></use>
                                </mask>
                                <g id="Clip-5"></g>
                                <path d="M87.584633,0.0334027217 L1.343633,0.0334027217 C0.601373,0.0334027217 -0.000266999998,0.630763565 -0.000266999998,1.36686058 L-0.000266999998,8.14637594 L88.927643,8.14637594 L88.927643,1.36686058 C88.927643,0.630763565 88.326003,0.0334027217 87.584633,0.0334027217" id="Fill-4" fill="#3262B5" mask="url(#mask-6)"></path>
                            </g>
                            <path d="M6.658357,4.77340799 C6.658357,5.44853178 6.222257,5.99552344 5.427487,5.99552344 C4.747527,5.99552344 4.195727,5.44853178 4.195727,4.77340799 C4.195727,4.0982842 4.747527,3.55129254 5.427487,3.55129254 C6.107447,3.55129254 6.658357,4.0982842 6.658357,4.77340799" id="Fill-7" stroke="none" fill="#90CAF9" fill-rule="evenodd"></path>
                            <path d="M10.913269,4.77340799 C10.913269,5.44853178 10.362359,5.99552344 9.682399,5.99552344 C9.002439,5.99552344 8.450639,5.44853178 8.450639,4.77340799 C8.450639,4.0982842 9.002439,3.55129254 9.682399,3.55129254 C10.362359,3.55129254 10.913269,4.0982842 10.913269,4.77340799" id="Fill-9" stroke="none" fill="#90CAF9" fill-rule="evenodd"></path>
                            <path d="M15.125105,4.77340799 C15.125105,5.44853178 14.574195,5.99552344 13.894235,5.99552344 C13.214275,5.99552344 12.662475,5.44853178 12.662475,4.77340799 C12.662475,4.0982842 13.214275,3.55129254 13.894235,3.55129254 C14.574195,3.55129254 15.125105,4.0982842 15.125105,4.77340799" id="Fill-11" stroke="none" fill="#90CAF9" fill-rule="evenodd"></path>
                            <mask id="mask-8" fill="white">
                                <use xlink:href="#path-7"></use>
                            </mask>
                            <g id="Clip-14" stroke="none" fill="none"></g>
                            <polygon id="Fill-13" stroke="none" fill="#FFFFFF" fill-rule="evenodd" mask="url(#mask-8)" points="10.1104 50.6901324 49.14758 50.6901324 49.14758 15.4829568 10.1104 15.4829568"></polygon>
                            <polygon id="Fill-15" stroke="none" fill="#FFFFFF" fill-rule="evenodd" mask="url(#mask-8)" points="53.30833 33.0865446 78.81751 33.0865446 78.81751 15.4829568 53.30833 15.4829568"></polygon>
                            <polygon id="Fill-16" stroke="none" fill="#FFFFFF" fill-rule="evenodd" mask="url(#mask-8)" points="53.30833 50.8695174 78.81751 50.8695174 78.81751 37.577355 53.30833 37.577355"></polygon>
                        </g>
                    </g>
                    <mask id="mask-10" fill="white">
                        <use xlink:href="#path-9"></use>
                    </mask>
                    <g id="Rectangle-9"></g>
                    <g mask="url(#mask-10)">
                        <g transform="translate(3.000000, 7.000000)">
                            <g id="Group-3" stroke="none" stroke-width="1" fill="none" fill-rule="evenodd" transform="translate(0.000000, 7.035956)">
                                <mask id="mask-12" fill="white">
                                    <use xlink:href="#path-11"></use>
                                </mask>
                                <g id="Clip-2"></g>
                                <path d="M88.592024,52.1365233 L0.336064,52.1365233 C0.150054,52.1365233 -0.000356000002,51.9871831 -0.000356000002,51.8033797 L-0.000356000002,1.64804434 C-0.000356000002,0.911063652 0.601284,0.314586479 1.343544,0.314586479 L87.584544,0.314586479 C88.326804,0.314586479 88.927554,0.911063652 88.927554,1.64804434 L88.927554,51.8033797 C88.927554,51.9871831 88.777144,52.1365233 88.592024,52.1365233" id="Fill-1" fill="#90CAF9" mask="url(#mask-12)"></path>
                            </g>
                            <g id="Group-6" stroke="none" stroke-width="1" fill="none" fill-rule="evenodd" transform="translate(0.000000, 0.850267)">
                                <mask id="mask-14" fill="white">
                                    <use xlink:href="#path-13"></use>
                                </mask>
                                <g id="Clip-5"></g>
                                <path d="M87.584633,0.0334027217 L1.343633,0.0334027217 C0.601373,0.0334027217 -0.000266999998,0.630763565 -0.000266999998,1.36686058 L-0.000266999998,8.14637594 L88.927643,8.14637594 L88.927643,1.36686058 C88.927643,0.630763565 88.326003,0.0334027217 87.584633,0.0334027217" id="Fill-4" fill="#3262B5" mask="url(#mask-14)"></path>
                            </g>
                            <path d="M6.658357,4.77340799 C6.658357,5.44853178 6.222257,5.99552344 5.427487,5.99552344 C4.747527,5.99552344 4.195727,5.44853178 4.195727,4.77340799 C4.195727,4.0982842 4.747527,3.55129254 5.427487,3.55129254 C6.107447,3.55129254 6.658357,4.0982842 6.658357,4.77340799" id="Fill-7" stroke="none" fill="#90CAF9" fill-rule="evenodd"></path>
                            <path d="M10.913269,4.77340799 C10.913269,5.44853178 10.362359,5.99552344 9.682399,5.99552344 C9.002439,5.99552344 8.450639,5.44853178 8.450639,4.77340799 C8.450639,4.0982842 9.002439,3.55129254 9.682399,3.55129254 C10.362359,3.55129254 10.913269,4.0982842 10.913269,4.77340799" id="Fill-9" stroke="none" fill="#90CAF9" fill-rule="evenodd"></path>
                            <path d="M15.125105,4.77340799 C15.125105,5.44853178 14.574195,5.99552344 13.894235,5.99552344 C13.214275,5.99552344 12.662475,5.44853178 12.662475,4.77340799 C12.662475,4.0982842 13.214275,3.55129254 13.894235,3.55129254 C14.574195,3.55129254 15.125105,4.0982842 15.125105,4.77340799" id="Fill-11" stroke="none" fill="#90CAF9" fill-rule="evenodd"></path>
                            <mask id="mask-16" fill="white">
                                <use xlink:href="#path-15"></use>
                            </mask>
                            <g id="Clip-14" stroke="none" fill="none"></g>
                            <polygon id="Fill-13" stroke="none" fill="#FFFFFF" fill-rule="evenodd" mask="url(#mask-16)" points="10.1104 50.6901324 49.14758 50.6901324 49.14758 15.4829568 10.1104 15.4829568"></polygon>
                            <polygon id="Fill-15" stroke="none" fill="#FFFFFF" fill-rule="evenodd" mask="url(#mask-16)" points="53.30833 33.0865446 78.81751 33.0865446 78.81751 15.4829568 53.30833 15.4829568"></polygon>
                            <polygon id="Fill-16" stroke="none" fill="#FFFFFF" fill-rule="evenodd" mask="url(#mask-16)" points="53.30833 50.8695174 78.81751 50.8695174 78.81751 37.577355 53.30833 37.577355"></polygon>
                        </g>
                    </g>
                </g>
            </g>
        </g>
    </g>
</svg>